<svg width="429" height="429" viewBox="0 0 429 429" fill="none" xmlns="http://www.w3.org/2000/svg">
<path d="M212.5 416.1C322.957 416.1 412.5 326.557 412.5 216.1C412.5 105.643 322.957 16.1001 212.5 16.1001C102.043 16.1001 12.5 105.643 12.5 216.1C12.5 326.557 102.043 416.1 212.5 416.1Z" fill="white"/>
<path d="M212.5 395.4C311.525 395.4 391.8 315.125 391.8 216.1C391.8 117.075 311.525 36.8 212.5 36.8C113.475 36.8 33.2 117.075 33.2 216.1C33.2 315.125 113.475 395.4 212.5 395.4Z" stroke="black" stroke-width="0.8" stroke-miterlimit="10"/>
<path d="M89 326.4C86.7 323.9 85.3 321.2 84.8 318.4C84.3 315.6 84.6 312.7 85.8 309.9C87 307 89 304.3 91.9 301.7C94.8 299.1 97.8 297.3 100.8 296.5C103.8 295.6 106.7 295.6 109.4 296.5C112.2 297.3 114.7 299 116.9 301.5C119.1 304 120.5 306.6 121 309.5C121.5 312.3 121.2 315.2 120 318C118.8 320.9 116.7 323.6 113.8 326.2C110.9 328.8 108 330.5 105 331.4C102 332.3 99.2 332.3 96.4 331.5C93.7 330.5 91.2 328.9 89 326.4ZM92.8 322.9C94.1 324.4 95.6 325.4 97.3 325.8C99 326.2 100.8 326.1 102.8 325.4C104.8 324.7 106.9 323.2 109.3 321.1C111.7 319 113.4 316.9 114.3 315C115.3 313.1 115.7 311.2 115.4 309.5C115.2 307.8 114.4 306.2 113 304.7C111.7 303.2 110.2 302.3 108.5 301.8C106.8 301.4 105 301.5 102.9 302.3C100.9 303.1 98.7 304.5 96.3 306.6C94 308.7 92.3 310.7 91.4 312.6C90.5 314.5 90.1 316.3 90.4 318C90.7 319.9 91.5 321.5 92.8 322.9Z" fill="black"/>
<path d="M133.1 361.4L127.7 357.8L130.6 342L123.5 337.3L115.3 349.6L110.2 346.2L130.4 315.8L142.8 324C145.1 325.6 146.8 327.2 147.9 328.9C148.9 330.6 149.4 332.4 149.3 334.2C149.2 336 148.5 337.8 147.4 339.5C146.3 341.1 145.2 342.3 143.9 343.1C142.6 343.8 141.3 344.3 140 344.4C138.7 344.5 137.4 344.5 136.1 344.3L133.1 361.4ZM132.4 337.3C134.3 338.6 136.2 339.2 137.9 339C139.6 338.8 141 337.9 142 336.3C143 334.7 143.3 333.2 142.9 331.7C142.4 330.2 141.4 328.9 139.7 327.8L132.9 323.3L126.3 333.3L132.4 337.3Z" fill="black"/>
<path d="M156.9 332.7C157 332.8 157.5 332.9 158.2 333.1C158.9 333.3 159.7 333.6 160.7 334C161.7 334.3 162.6 334.7 163.6 335C164.6 335.4 165.5 335.7 166.2 335.9C170.4 337.5 173.6 339.4 175.7 341.7C177.9 344 179.1 346.6 179.5 349.5C179.9 352.4 179.4 355.7 178.2 359.2C176.9 362.9 175.1 365.8 172.9 367.9C170.7 370 168 371.3 164.8 371.7C161.6 372.1 157.9 371.6 153.8 370.1L144.8 367L156.9 332.7ZM161.1 339.6L152.4 364.4L155.5 365.5C157.9 366.3 160.1 366.7 162.2 366.5C164.3 366.3 166.2 365.5 167.9 364C169.6 362.5 171 360.2 172 357.2C173 354.2 173.4 351.7 173.1 349.5C172.8 347.4 171.9 345.6 170.3 344.2C168.8 342.8 166.8 341.6 164.3 340.7L161.1 339.6Z" fill="black"/>
<path d="M184.3 378.9L188 342.6L212.2 345L211.6 350.2L193.7 348.4L192.7 358.6L208.5 360.2L208 365.4L192.1 363.8L191.1 374.2L209.5 376.1L209 381.4L184.3 378.9Z" fill="black"/>
<path d="M249 377.6L242.6 378.4L234.4 364.6L225.9 365.7L227.8 380.4L221.7 381.2L217 345L231.8 343C234.6 342.6 236.9 342.8 238.9 343.4C240.9 344 242.3 345.1 243.4 346.5C244.5 347.9 245.2 349.7 245.4 351.8C245.7 353.7 245.6 355.4 245.1 356.8C244.6 358.2 243.9 359.4 243 360.3C242.1 361.3 241.1 362.1 240 362.7L249 377.6ZM232.6 359.9C234.9 359.6 236.7 358.8 237.8 357.6C239 356.4 239.4 354.8 239.2 352.9C239 351 238.2 349.7 236.8 348.8C235.5 348 233.8 347.7 231.8 347.9L223.7 349L225.3 360.9L232.6 359.9Z" fill="black"/>
<path d="M248.8 339.4L254.7 337.5L265.7 372.3L259.8 374.2L248.8 339.4Z" fill="black"/>
<path d="M282 324.7L287.4 321.8L304.8 353.9L299.9 356.5L270.9 341.8L283.6 365.3L278.2 368.2L260.8 336.1L266.1 333.2L294.3 347.5L282 324.7Z" fill="black"/>
<path d="M327.4 335.5C325 337.8 322.5 339.2 319.7 339.8C316.9 340.4 314.1 340.1 311.2 339C308.3 337.9 305.6 335.9 302.9 333.2C300.2 330.4 298.4 327.5 297.4 324.5C296.4 321.5 296.3 318.6 297 315.8C297.7 313 299.3 310.5 301.7 308.2C303.2 306.8 304.8 305.7 306.5 305C308.2 304.3 309.9 303.9 311.7 303.8C313.4 303.7 315.1 304 316.6 304.5C318.1 305 319.5 305.8 320.6 306.9L315.9 311.4C314.9 310.7 313.7 310.2 312.5 309.9C311.3 309.6 310 309.7 308.8 310C307.6 310.3 306.4 311 305.4 312C304.1 313.3 303.2 314.7 302.8 316.4C302.4 318.1 302.6 319.9 303.3 321.9C304.1 323.9 305.6 326 307.7 328.3C309.4 330.1 311.1 331.4 312.6 332.3C314.2 333.2 315.6 333.7 317 333.8C318.4 333.9 319.6 333.7 320.8 333.2C322 332.7 323 332 324 331.1C324.9 330.2 325.6 329.3 326 328.3C326.4 327.3 326.6 326.3 326.6 325.3C326.6 324.3 326.5 323.4 326.2 322.6C325.9 321.8 325.5 321 325 320.4L323.3 318.3L317.4 324L314.4 320.9L325 310.8L338.1 324.5L334.9 327.5L331.4 323.8C331.6 324.9 331.6 326.1 331.5 327.4C331.4 328.7 331 330 330.4 331.4C329.8 332.8 328.8 334.1 327.4 335.5Z" fill="black"/>
<path d="M212.5 330.9C275.902 330.9 327.3 279.502 327.3 216.1C327.3 152.698 275.902 101.3 212.5 101.3C149.098 101.3 97.7 152.698 97.7 216.1C97.7 279.502 149.098 330.9 212.5 330.9Z" stroke="black" stroke-width="0.8" stroke-miterlimit="10"/>
<path d="M145.8 103.4C144.6 104.1 143.2 104.7 141.9 105.1C140.5 105.5 139.2 105.7 137.8 105.6C136.5 105.6 135.2 105.3 134 104.7C132.8 104.1 131.8 103.3 130.9 102.1L135.4 99.4001C136.1 100.2 136.9 100.7 137.8 100.9C138.7 101.2 139.7 101.2 140.7 101C141.7 100.8 142.7 100.4 143.7 99.8001C144.8 99.2001 145.6 98.4001 146.3 97.7001C147 96.9001 147.4 96.1001 147.6 95.2001C147.8 94.3001 147.6 93.5001 147.2 92.7001C146.8 92.0001 146.2 91.5001 145.6 91.2001C144.9 90.9001 144.2 90.8001 143.3 90.9001C142.5 91.0001 141.5 91.2001 140.5 91.5001L135.1 93.3001C133 94.0001 131 94.2001 129.2 93.7001C127.4 93.2001 125.9 92.1001 124.8 90.2001C123.9 88.7001 123.5 87.0001 123.6 85.4001C123.7 83.7001 124.4 82.2001 125.4 80.7001C126.4 79.2001 127.9 77.9001 129.8 76.8001C131.9 75.5001 133.9 74.8001 135.8 74.6001C137.7 74.4001 139.3 74.7001 140.8 75.4001C142.2 76.1001 143.4 77.2001 144.2 78.6001L139.8 81.2001C139.1 80.2001 138.3 79.6001 137.4 79.3001C136.5 79.0001 135.6 78.9001 134.7 79.1001C133.8 79.3001 132.8 79.7001 131.9 80.3001C131.2 80.7001 130.6 81.2001 130.1 81.7001C129.6 82.2001 129.2 82.8001 128.9 83.4001C128.6 84.0001 128.5 84.6001 128.5 85.2001C128.5 85.8001 128.7 86.4001 129.1 87.0001C129.6 87.8001 130.3 88.3001 131.1 88.5001C132 88.7001 133.3 88.5001 135 88.0001L140.2 86.3001C141.8 85.7001 143.2 85.5001 144.4 85.5001C145.6 85.5001 146.7 85.8001 147.6 86.3001C148.5 86.8001 149.2 87.3001 149.9 88.0001C150.6 88.7001 151 89.3001 151.4 90.0001C152.2 91.3001 152.5 92.8001 152.3 94.4001C152.1 96.0001 151.5 97.5001 150.3 99.1001C149.4 100.8 147.8 102.2 145.8 103.4Z" fill="black"/>
<path d="M159.8 95.4002L149.8 67.1002L168.5 60.5002L169.9 64.6002L156 69.5002L158.8 77.4002L171.1 73.1002L172.5 77.1002L160.2 81.4002L163.1 89.5002L177.3 84.5002L178.8 88.6002L159.8 95.4002Z" fill="black"/>
<path d="M190.3 55.9C192.5 55.6 194.5 55.8 196.3 56.4C198.1 57 199.6 58 200.9 59.4C202.1 60.8 203 62.3 203.5 64.2L198.2 65C197.8 63.9 197.3 63 196.6 62.2C195.9 61.4 195.1 60.8 194.1 60.5C193.1 60.1 192 60 190.7 60.2C189.1 60.4 187.8 61 186.8 61.9C185.8 62.8 185.1 64.1 184.8 65.8C184.4 67.5 184.5 69.6 184.8 72.2C185.4 76.1 186.4 78.8 187.9 80.4C189.4 82 191.4 82.6 193.8 82.3C195.1 82.1 196.1 81.7 196.9 81C197.7 80.3 198.3 79.5 198.8 78.5C199.2 77.5 199.5 76.4 199.5 75.3L204.8 74.5C204.8 75.9 204.7 77.2 204.3 78.5C204 79.8 203.4 81 202.6 82.1C201.8 83.2 200.7 84.1 199.4 84.9C198.1 85.7 196.4 86.2 194.5 86.4C191.8 86.8 189.4 86.5 187.2 85.5C185.1 84.5 183.3 83 181.9 80.8C180.5 78.6 179.6 76 179.2 72.8C178.7 69.6 178.9 66.9 179.6 64.5C180.3 62.1 181.6 60.2 183.3 58.7C185 57.2 187.6 56.3 190.3 55.9Z" fill="black"/>
<path d="M234.4 75.0001C234.2 77.4001 233.7 79.4001 232.8 81.0001C231.9 82.6001 230.6 83.8001 228.8 84.6001C227 85.4001 224.8 85.7001 222 85.5001C219.2 85.3001 217.1 84.7001 215.4 83.7001C213.8 82.7001 212.6 81.3001 212 79.5001C211.4 77.7001 211.1 75.6001 211.3 73.1001L212.6 54.4001L217.8 54.8001L216.5 74.0001C216.3 76.3001 216.8 78.1001 217.8 79.2001C218.9 80.4001 220.4 81.0001 222.3 81.2001C223.6 81.3001 224.8 81.1001 225.8 80.7001C226.8 80.3001 227.6 79.6001 228.2 78.6001C228.8 77.6001 229.1 76.4001 229.3 74.8001L230.6 55.6001L235.7 56.0001L234.4 75.0001Z" fill="black"/>
<path d="M260.2 93.1001L255.1 91.6001L253.5 78.5001L246.8 76.6001L243.4 88.3001L238.6 86.9001L246.9 58.1001L258.6 61.5001C260.8 62.1001 262.5 63.0001 263.8 64.1001C265 65.2001 265.8 66.5001 266.1 67.9001C266.4 69.3001 266.4 70.9001 265.9 72.6001C265.5 74.1001 264.8 75.4001 264 76.3001C263.2 77.2001 262.3 77.9001 261.3 78.3001C260.3 78.7001 259.3 79.0001 258.3 79.2001L260.2 93.1001ZM253.7 74.4001C255.5 74.9001 257.1 74.9001 258.4 74.4001C259.7 73.8001 260.5 72.8001 261 71.3001C261.4 69.8001 261.3 68.5001 260.6 67.4001C259.9 66.3001 258.7 65.6001 257.2 65.1001L250.8 63.3001L248.1 72.8001L253.7 74.4001Z" fill="black"/>
<path d="M264.4 95.1002L278.2 68.5002L295.8 77.6002L293.8 81.4002L280.7 74.6002L276.8 82.1002L288.3 88.1002L286.3 91.9002L274.7 85.9002L270.8 93.5002L284.2 100.5L282.2 104.4L264.4 95.1002Z" fill="black"/>
<path d="M56.8 226.9C57.4 230 62.8001 246.1 83.3001 241.3C76.2001 221.5 59.7 225.7 56.8 226.9Z" fill="black"/>
<path d="M59.9001 249.6C61.0001 252.5 69.0001 267.6 88.4001 259.4C78.2001 241.1 62.6001 248 59.9001 249.6Z" fill="black"/>
<path d="M57.5 203.7C57.5 206.8 60.1 223.7 81.1 222.5C77.5 201.7 60.5 203 57.5 203.7Z" fill="black"/>
<path d="M60.3002 182.2C60.1002 185.3 61.4002 202.3 82.4002 202.7C80.4002 181.7 63.4002 181.7 60.3002 182.2Z" fill="black"/>
<path d="M64.6 161.1C64.2 164.2 64.1 181.2 85.1 183.3C84.7 162.2 67.7 160.9 64.6 161.1Z" fill="black"/>
<path d="M72.2 143.1C71.8 146.2 71.7 163.2 92.7 165.3C92.3 144.2 75.3 142.9 72.2 143.1Z" fill="black"/>
<path d="M84.0001 124.4C83.0001 127.3 79.5001 144 99.6001 150.2C103.5 129.5 87.1001 124.8 84.0001 124.4Z" fill="black"/>
<path d="M98.2 108.4C96.7 111.1 90.7 127.1 109.6 136.3C116.7 116.5 101.2 109.3 98.2 108.4Z" fill="black"/>
<path d="M370.2 226.9C369.6 230 364.2 246.1 343.7 241.3C350.8 221.5 367.3 225.7 370.2 226.9Z" fill="black"/>
<path d="M367.1 249.6C366 252.5 358 267.6 338.6 259.4C348.8 241.1 364.4 248 367.1 249.6Z" fill="black"/>
<path d="M369.5 203.7C369.5 206.8 366.9 223.7 345.9 222.5C349.4 201.7 366.5 203 369.5 203.7Z" fill="black"/>
<path d="M366.7 182.2C366.9 185.3 365.6 202.3 344.6 202.7C346.5 181.7 363.6 181.7 366.7 182.2Z" fill="black"/>
<path d="M362.4 161.1C362.8 164.2 362.9 181.2 341.9 183.3C342.3 162.2 359.3 160.9 362.4 161.1Z" fill="black"/>
<path d="M354.8 143.1C355.2 146.2 355.3 163.2 334.3 165.3C334.7 144.2 351.7 142.9 354.8 143.1Z" fill="black"/>
<path d="M343 124.4C344 127.3 347.5 144 327.4 150.2C323.5 129.5 339.9 124.8 343 124.4Z" fill="black"/>
<path d="M328.8 108.4C330.3 111.1 336.3 127.1 317.4 136.3C310.3 116.5 325.8 109.3 328.8 108.4Z" fill="black"/>
<path d="M219.5 213.6C217.1 211.3 214 210.1 210.7 210.2C204.4 210.4 199.3 215.4 199 221.7C198.8 225.4 200.4 229.1 203.3 231.5V240C203.3 244.3 206.8 247.8 211.1 247.8C215.4 247.8 218.9 244.3 218.9 240V231.5C221.6 229.2 223.2 225.9 223.2 222.3C223.2 218.9 221.9 215.9 219.5 213.6ZM215.6 227.9C214.6 228.7 214 229.9 214 231.3V240C214 241.6 212.7 243 211.1 243C209.5 243 208.2 241.7 208.2 240V231.3C208.2 230 207.6 228.8 206.6 227.9C204.8 226.4 203.8 224.3 203.9 221.9C204.1 218.1 207.2 215.1 210.9 215C211 215 211 215 211.1 215C213 215 214.8 215.7 216.1 217C217.5 218.4 218.3 220.2 218.3 222.2C218.3 224.4 217.3 226.5 215.6 227.9Z" fill="black"/>
<path d="M242.5 198.2V180.6C242.5 163.3 228.4 149.2 211.1 149.2C193.8 149.2 179.7 163.3 179.7 180.6V198.1C173.8 204.1 169.7 211.7 168 220C167.7 221.3 168.6 222.6 169.9 222.8C171.2 223.1 172.5 222.2 172.7 220.9C176.4 202.8 192.5 189.7 211 189.7C232.6 189.7 250.1 207.2 250.1 228.8C250.1 250.4 232.6 268 211.1 268C192.6 268 176.5 254.9 172.8 236.8C172.5 235.5 171.3 234.7 170 234.9C168.7 235.2 167.9 236.4 168.1 237.7C170.1 247.5 175.5 256.4 183.2 262.7C191 269.2 201 272.7 211.1 272.7C235.3 272.7 255 253 255 228.8C255 217 250.2 206.2 242.5 198.2ZM226 187.6C221.3 185.9 216.3 185 211 185C205.9 185 200.8 185.9 196 187.6V180.6C196 172.3 202.7 165.6 211 165.6C219.3 165.6 226 172.3 226 180.6V187.6ZM237.6 194C235.5 192.4 233.2 191 230.8 189.8V180.7C230.8 169.8 221.9 160.9 211 160.9C200.1 160.9 191.2 169.8 191.2 180.7V189.8C188.8 191 186.6 192.4 184.4 194V180.7C184.4 166.1 196.3 154.2 210.9 154.2C225.5 154.2 237.4 166.1 237.4 180.7V194H237.6Z" fill="black"/>
<path d="M243.7 227.2C243.3 226.8 242.6 226.5 242 226.5C241.4 226.5 240.7 226.8 240.3 227.2C239.9 227.6 239.6 228.3 239.6 228.9C239.6 229.5 239.9 230.2 240.3 230.6C240.7 231 241.4 231.3 242 231.3C242.6 231.3 243.3 231 243.7 230.6C244.1 230.2 244.4 229.5 244.4 228.9C244.4 228.3 244.1 227.7 243.7 227.2Z" fill="black"/>
<path d="M243.5 221.3C241.8 214.1 237.7 207.6 231.9 203C226 198.3 218.6 195.7 211.1 195.7C209.8 195.7 208.7 196.8 208.7 198.1C208.7 199.4 209.8 200.5 211.1 200.5C224.4 200.5 235.8 209.5 238.8 222.4C239.1 223.5 240.1 224.3 241.1 224.3C241.3 224.3 241.5 224.3 241.7 224.2C243 223.9 243.8 222.6 243.5 221.3Z" fill="black"/>
<path d="M169.6 226.5H169.5C168.2 226.5 167.1 227.6 167.1 228.9C167.1 230.2 168.2 231.3 169.5 231.3H169.6C170.9 231.3 172 230.2 172 228.9C172 227.6 171 226.5 169.6 226.5Z" fill="black"/>
</svg>
