<svg width="429" height="429" viewBox="0 0 429 429" fill="none" xmlns="http://www.w3.org/2000/svg">
<path d="M215.4 416.1C325.857 416.1 415.4 326.557 415.4 216.1C415.4 105.643 325.857 16.1001 215.4 16.1001C104.943 16.1001 15.3999 105.643 15.3999 216.1C15.3999 326.557 104.943 416.1 215.4 416.1Z" fill="white"/>
<path d="M215.4 395.4C314.425 395.4 394.7 315.125 394.7 216.1C394.7 117.075 314.425 36.8 215.4 36.8C116.375 36.8 36.1001 117.075 36.1001 216.1C36.1001 315.125 116.375 395.4 215.4 395.4Z" stroke="black" stroke-width="0.8" stroke-miterlimit="10"/>
<path d="M66.6999 288.9C65.1999 286 64.6999 283.1 64.8999 280.2C65.1999 277.4 66.2999 274.7 68.1999 272.4C70.0999 270 72.7999 267.9 76.2999 266.2C79.7999 264.5 83.0999 263.6 86.1999 263.6C89.2999 263.6 92.0999 264.3 94.5999 265.9C96.9999 267.4 98.9999 269.7 100.5 272.7C101.4 274.5 101.9 276.4 102.1 278.2C102.3 280 102.1 281.8 101.6 283.5C101.1 285.2 100.4 286.7 99.3999 288C98.3999 289.3 97.1999 290.4 95.8999 291.1L92.9999 285.2C93.9999 284.4 94.7999 283.5 95.4999 282.4C96.0999 281.3 96.4999 280.1 96.4999 278.8C96.5999 277.5 96.2999 276.2 95.5999 274.9C94.7999 273.2 93.5999 272 92.1999 271.1C90.6999 270.2 88.8999 269.8 86.7999 270C84.6999 270.1 82.1999 270.9 79.3999 272.3C77.1999 273.4 75.3999 274.6 74.0999 275.8C72.7999 277 71.8999 278.3 71.3999 279.5C70.8999 280.7 70.6999 282 70.7999 283.3C70.8999 284.6 71.2999 285.8 71.7999 287C72.3999 288.2 73.0999 289.1 73.8999 289.8C74.6999 290.5 75.5999 291 76.4999 291.3C77.3999 291.6 78.3999 291.7 79.1999 291.7C80.0999 291.7 80.8999 291.5 81.5999 291.3L84.0999 290.3L80.4999 282.9L84.3999 281L90.7999 294.2L73.7999 302.6L71.8999 298.7L76.4999 296.4C75.3999 296.2 74.1999 295.9 73.0999 295.5C71.9999 295.1 70.7999 294.3 69.6999 293.3C68.5999 292.3 67.5999 290.7 66.6999 288.9Z" fill="black"/>
<path d="M110.7 326.7C108.5 328.6 106.3 329.9 104.2 330.5C102 331.1 99.7997 331 97.5997 330.2C95.3997 329.4 93.1997 327.7 90.9997 325.1C88.7997 322.5 87.3997 320.1 86.8997 317.8C86.3997 315.5 86.5997 313.3 87.5997 311.2C88.5997 309.1 90.1997 307.1 92.3997 305.1L109.5 290.1L113.7 294.9L95.9997 310.4C93.8997 312.3 92.7997 314.2 92.6997 316.1C92.5997 318 93.3997 319.9 94.8997 321.7C95.9997 322.9 97.0997 323.8 98.2997 324.3C99.4997 324.8 100.8 324.9 102.1 324.6C103.4 324.3 104.8 323.5 106.3 322.2L123.9 306.8L128 311.5L110.7 326.7Z" fill="black"/>
<path d="M107 341.5L138.8 319.2L144.3 323L134.2 360.4L129.1 356.8L131.7 347.4L120.2 339.4L112.2 345L107 341.5ZM124.4 335.9L133.4 342.2L138 326L124.4 335.9Z" fill="black"/>
<path d="M170.4 375.3L164.4 373L163.7 356.9L155.7 353.9L150.5 367.7L144.7 365.5L157.6 331.4L171.5 336.7C174.1 337.7 176.1 338.9 177.5 340.4C178.9 341.9 179.7 343.5 180 345.3C180.3 347.1 180 349 179.3 350.9C178.6 352.7 177.7 354.1 176.7 355.1C175.6 356.1 174.5 356.8 173.2 357.2C171.9 357.6 170.7 357.9 169.4 357.9L170.4 375.3ZM164.3 352C166.5 352.8 168.4 353 170 352.4C171.6 351.9 172.8 350.7 173.4 348.9C174.1 347.1 174 345.6 173.2 344.2C172.4 342.8 171.1 341.8 169.2 341.1L161.6 338.2L157.4 349.4L164.3 352Z" fill="black"/>
<path d="M180.7 378L197.9 343.2L204.5 343.9L213.6 381.6L207.4 380.9L205.1 371.5L191.2 370L186.9 378.7L180.7 378ZM193.2 364.7L204.2 365.9L200.5 349.5L193.2 364.7Z" fill="black"/>
<path d="M243.9 341.6L250 340.7L255.4 376.8L249.9 377.6L227.7 353.9L231.7 380.4L225.6 381.3L220.2 345.2L226.2 344.3L247.9 367.4L243.9 341.6Z" fill="black"/>
<path d="M254.2 345.1L252.1 340L278.6 329L280.7 334.1L270.5 338.3L282.4 366.9L276.7 369.3L264.8 340.7L254.2 345.1Z" fill="black"/>
<path d="M301.5 357.4L280.5 327.6L300.4 313.6L303.4 317.9L288.7 328.3L294.6 336.7L307.6 327.5L310.6 331.7L297.5 340.9L303.5 349.4L318.6 338.8L321.7 343.2L301.5 357.4Z" fill="black"/>
<path d="M331.1 334.6L304 310.2L320.2 292.1L324.1 295.6L312.1 309L319.7 315.8L330.3 303.9L334.2 307.4L323.5 319.3L331.3 326.3L343.7 312.6L347.7 316.2L331.1 334.6Z" fill="black"/>
<path d="M323 288.3C323.1 288.2 323.3 287.8 323.6 287.1C324 286.4 324.4 285.7 324.8 284.8C325.3 283.9 325.8 283 326.3 282C326.8 281.1 327.2 280.3 327.6 279.6C329.8 275.7 332.2 272.8 334.7 271C337.3 269.2 340.1 268.3 343 268.4C346 268.5 349.1 269.4 352.4 271.2C355.8 273 358.4 275.2 360.2 277.7C362 280.2 362.8 283.1 362.7 286.3C362.6 289.5 361.6 293.1 359.5 297L355 305.4L323 288.3ZM330.4 285.2L353.6 297.6L355.2 294.7C356.4 292.5 357 290.3 357.2 288.2C357.4 286.1 356.8 284.1 355.6 282.2C354.4 280.3 352.3 278.6 349.5 277.1C346.7 275.6 344.2 274.9 342.1 274.9C340 274.9 338 275.5 336.4 276.8C334.8 278.1 333.3 279.9 332.1 282.2L330.4 285.2Z" fill="black"/>
<path d="M101.9 150.9C101.2 152.2 100.3 153.3 99.3001 154.3C98.3001 155.3 97.2001 156.1 96.0001 156.8C94.8001 157.4 93.6001 157.8 92.2001 157.9C90.9001 158 89.6001 157.8 88.2001 157.2L90.8001 152.7C91.8001 153 92.7001 153.1 93.7001 152.8C94.6001 152.6 95.5001 152.1 96.3001 151.5C97.1001 150.8 97.8001 150 98.4001 149C99.0001 147.9 99.4001 146.9 99.6001 145.8C99.8001 144.7 99.8001 143.8 99.5001 143C99.2001 142.2 98.7001 141.5 97.9001 141.1C97.2001 140.7 96.5001 140.5 95.8001 140.6C95.1001 140.7 94.4001 141 93.7001 141.5C93.0001 142 92.3001 142.6 91.6001 143.4L87.8001 147.6C86.3001 149.3 84.7001 150.4 82.9001 150.9C81.1001 151.4 79.3001 151.1 77.4001 150C75.8001 149.1 74.7001 147.9 74.0001 146.4C73.3001 144.9 73.1001 143.2 73.3001 141.4C73.5001 139.6 74.1001 137.7 75.2001 135.9C76.4001 133.7 77.8001 132.1 79.4001 131C81.0001 129.9 82.5001 129.3 84.1001 129.2C85.7001 129.1 87.2001 129.5 88.6001 130.3L86.1001 134.7C85.0001 134.2 84.0001 134.1 83.1001 134.2C82.2001 134.4 81.4001 134.8 80.7001 135.4C80.0001 136 79.3001 136.8 78.8001 137.8C78.4001 138.5 78.1001 139.2 77.9001 140C77.7001 140.7 77.6001 141.4 77.7001 142.1C77.8001 142.8 77.9001 143.3 78.3001 143.9C78.6001 144.4 79.1001 144.9 79.7001 145.2C80.5001 145.7 81.4001 145.8 82.2001 145.5C83.0001 145.2 84.1001 144.4 85.3001 143.1L89.0001 139C90.1001 137.7 91.2001 136.8 92.3001 136.2C93.4001 135.6 94.4001 135.3 95.4001 135.3C96.4001 135.3 97.3001 135.4 98.2001 135.7C99.1001 136 99.8001 136.3 100.5 136.7C101.9 137.5 102.8 138.6 103.5 140.1C104.1 141.6 104.3 143.2 104.1 145.1C103.8 146.8 103.1 148.8 101.9 150.9Z" fill="black"/>
<path d="M108.2 139.1L92.8999 111.1L96.4999 107L126.1 118.8L122.7 122.6L115.3 119.6L107.7 128.2L111.5 135.2L108.2 139.1ZM105.1 124.4L111.1 117.6L98.2999 112.3L105.1 124.4Z" fill="black"/>
<path d="M109.2 100.1L106.4 96.5L124.8 82L127.6 85.6L120.5 91.2L136.3 111.2L132.3 114.3L116.5 94.3L109.2 100.1Z" fill="black"/>
<path d="M131.4 78.3002L135.7 75.7002L150.9 101.5L146.6 104.1L131.4 78.3002Z" fill="black"/>
<path d="M166.4 94.6001C165.1 95.1001 163.7 95.5001 162.3 95.7001C160.9 95.9001 159.5 95.8001 158.2 95.6001C156.9 95.4001 155.7 94.9001 154.6 94.1001C153.5 93.4001 152.6 92.4001 151.9 91.1001L156.7 89.1001C157.3 90.0001 158 90.6001 158.9 91.0001C159.8 91.4001 160.7 91.6001 161.7 91.5001C162.7 91.5001 163.8 91.2001 164.9 90.8001C166.1 90.3001 167 89.8001 167.8 89.1001C168.6 88.4001 169.2 87.7001 169.5 86.9001C169.8 86.1001 169.8 85.3001 169.4 84.4001C169.1 83.6001 168.6 83.1001 168 82.7001C167.4 82.3001 166.7 82.1001 165.8 82.1001C165 82.0001 164 82.1001 163 82.3001L157.4 83.3001C155.2 83.7001 153.2 83.6001 151.5 82.8001C149.8 82.1001 148.5 80.7001 147.7 78.7001C147 77.0001 146.9 75.4001 147.3 73.8001C147.7 72.2001 148.5 70.7001 149.8 69.4001C151.1 68.1001 152.7 67.0001 154.7 66.2001C157 65.3001 159.1 64.9001 161 65.0001C162.9 65.1001 164.5 65.6001 165.8 66.6001C167.1 67.5001 168.1 68.7001 168.7 70.2001L164 72.0001C163.4 70.9001 162.8 70.2001 161.9 69.8001C161.1 69.4001 160.2 69.2001 159.2 69.2001C158.2 69.3001 157.2 69.5001 156.2 69.9001C155.4 70.2001 154.7 70.6001 154.2 71.0001C153.6 71.5001 153.1 71.9001 152.8 72.5001C152.4 73.0001 152.2 73.6001 152.1 74.2001C152 74.8001 152.1 75.4001 152.4 76.1001C152.8 77.0001 153.3 77.6001 154.2 77.9001C155 78.2001 156.3 78.2001 158.1 78.0001L163.5 77.1001C165.2 76.8001 166.6 76.7001 167.8 77.0001C169 77.2001 170 77.6001 170.8 78.2001C171.6 78.8001 172.3 79.5001 172.8 80.2001C173.3 81.0001 173.7 81.7001 174 82.4001C174.6 83.8001 174.7 85.3001 174.3 86.9001C173.9 88.5001 173 89.9001 171.7 91.2001C170.4 92.6001 168.6 93.7001 166.4 94.6001Z" fill="black"/>
<path d="M175.6 59.5002L194.8 55.7002L195.6 59.9002L181.4 62.7002L183.1 71.2002L195.6 68.7002L196.4 72.8002L184 75.3002L186.5 87.9002L181.5 88.9002L175.6 59.5002Z" fill="black"/>
<path d="M199.9 84.9001L210.2 54.7001L215.7 54.6001L226.9 84.4001L221.8 84.5001L219 77.0001L207.6 77.2001L205 84.7001L199.9 84.9001ZM208.7 72.8001L217.7 72.7001L213 59.7001L208.7 72.8001Z" fill="black"/>
<path d="M246.2 57.2002C248.4 57.6002 250.2 58.4001 251.7 59.6001C253.2 60.8001 254.3 62.2002 255.1 63.9002C255.8 65.6002 256.1 67.4001 256 69.2001L250.8 68.2001C250.8 67.1001 250.6 66.0001 250.2 65.1001C249.8 64.1001 249.2 63.3002 248.4 62.7002C247.6 62.0002 246.6 61.6001 245.3 61.3001C243.7 61.0001 242.3 61.1002 241.1 61.7002C239.9 62.2002 238.8 63.2001 237.9 64.7001C237 66.2001 236.3 68.2002 235.9 70.8002C235.2 74.7002 235.3 77.6001 236.2 79.6001C237.1 81.6001 238.8 82.8002 241.1 83.3002C242.3 83.5002 243.5 83.5001 244.5 83.1001C245.5 82.7001 246.4 82.1002 247.1 81.3002C247.8 80.5002 248.4 79.6002 248.8 78.5002L254 79.5002C253.6 80.8001 253 82.0001 252.3 83.1001C251.6 84.2001 250.6 85.2002 249.5 86.0002C248.4 86.8001 247.1 87.3001 245.6 87.6001C244.1 87.9001 242.4 87.8001 240.5 87.5002C237.8 87.0002 235.6 85.9002 233.9 84.3002C232.2 82.7002 231 80.6001 230.4 78.2001C229.8 75.7001 229.8 72.9001 230.4 69.7001C231 66.6001 232 64.0002 233.5 61.9002C235 59.9002 236.8 58.4001 238.9 57.6001C241 56.8001 243.5 56.7002 246.2 57.2002Z" fill="black"/>
<path d="M262.6 66L264.3 61.8L286 70.5L284.3 74.7L275.9 71.4001L266.5 95L261.8 93.1L271.2 69.5L262.6 66Z" fill="black"/>
<path d="M292.6 74.3L297 76.8L282.2 102.9L277.8 100.4L292.6 74.3Z" fill="black"/>
<path d="M296.8 113.5C294.6 111.8 293.1 109.8 292.3 107.6C291.5 105.4 291.4 103.1 291.9 100.6C292.5 98.1001 293.7 95.6001 295.7 93.1001C297.7 90.6001 299.9 88.7001 302.2 87.6001C304.5 86.5001 306.8 86.1001 309.2 86.4001C311.6 86.7001 313.8 87.7001 315.9 89.4001C318 91.1001 319.5 93.0001 320.3 95.2001C321.1 97.4001 321.2 99.8001 320.6 102.2C320 104.7 318.7 107.2 316.7 109.7C314.7 112.2 312.6 114 310.3 115.2C308 116.3 305.7 116.7 303.4 116.5C301.2 116.2 299 115.2 296.8 113.5ZM299.5 110.2C300.8 111.2 302.1 111.8 303.5 111.9C304.9 112 306.3 111.7 307.8 110.8C309.3 109.9 310.9 108.5 312.5 106.4C314.1 104.3 315.2 102.5 315.8 100.8C316.3 99.1001 316.4 97.6001 316 96.2001C315.6 94.9001 314.7 93.7001 313.5 92.7001C312.2 91.7001 310.9 91.1001 309.5 91.0001C308.1 90.9001 306.6 91.3001 305.1 92.2001C303.6 93.1001 302 94.6001 300.3 96.6001C298.7 98.6001 297.6 100.5 297.1 102.2C296.6 103.9 296.6 105.4 297 106.7C297.4 108 298.2 109.2 299.5 110.2Z" fill="black"/>
<path d="M346.1 121.1L349.2 125L325.8 143.7L323 140.2L330.8 114.7L313.6 128.4L310.5 124.5L333.9 105.8L337 109.7L329.4 134.5L346.1 121.1Z" fill="black"/>
<path d="M144.4 260.1V198.2C143.7 198.6 142.9 199 142 199.4C141.1 199.8 140.2 200.2 139.2 200.6C138.2 201 137.2 201.4 136.3 201.8C135.4 202.2 134.5 202.6 133.8 203V191C134.5 190.6 135.5 190.1 136.8 189.4C138.1 188.7 139.5 188 140.9 187.1C142.4 186.3 143.7 185.4 145 184.6C146.3 183.7 147.2 183 147.9 182.3H160.5V260H144.4V260.1Z" fill="black"/>
<path d="M193.4 261.5C188.7 261.5 184.8 260.6 181.7 258.7C178.6 256.8 176.2 254.2 174.6 250.9C173 247.6 172.2 243.7 172.2 239.3V204C172.2 199.5 173 195.5 174.5 192.1C176 188.7 178.3 186 181.5 184.1C184.6 182.2 188.6 181.2 193.5 181.2C198.4 181.2 202.3 182.2 205.4 184.1C208.5 186 210.8 188.7 212.3 192.1C213.8 195.5 214.6 199.5 214.6 204V239.2C214.6 243.6 213.8 247.4 212.2 250.8C210.6 254.2 208.2 256.8 205.1 258.7C201.9 260.6 198 261.5 193.4 261.5ZM193.4 247.2C194.9 247.2 196 246.7 196.7 245.7C197.4 244.7 197.8 243.6 197.9 242.2C198.1 240.9 198.1 239.8 198.1 238.8V204.4C198.1 203.3 198 202.1 197.9 200.7C197.8 199.3 197.4 198.1 196.7 197.1C196 196 194.9 195.5 193.3 195.5C191.7 195.5 190.6 196 189.9 197.1C189.2 198.2 188.8 199.4 188.7 200.7C188.6 202.1 188.5 203.3 188.5 204.4V238.8C188.5 239.8 188.6 240.9 188.8 242.2C189 243.5 189.4 244.7 190.1 245.7C190.9 246.7 192 247.2 193.4 247.2Z" fill="black"/>
<path d="M244.3 261.5C239.6 261.5 235.7 260.6 232.6 258.7C229.5 256.8 227.1 254.2 225.5 250.9C223.9 247.6 223.1 243.7 223.1 239.3V204C223.1 199.5 223.9 195.5 225.4 192.1C226.9 188.7 229.2 186 232.4 184.1C235.5 182.2 239.5 181.2 244.4 181.2C249.3 181.2 253.2 182.2 256.3 184.1C259.4 186 261.7 188.7 263.2 192.1C264.7 195.5 265.5 199.5 265.5 204V239.2C265.5 243.6 264.7 247.4 263.1 250.8C261.5 254.2 259.1 256.8 256 258.7C252.8 260.6 248.9 261.5 244.3 261.5ZM244.3 247.2C245.8 247.2 246.9 246.7 247.6 245.7C248.3 244.7 248.7 243.6 248.8 242.2C249 240.9 249 239.8 249 238.8V204.4C249 203.3 248.9 202.1 248.8 200.7C248.7 199.3 248.3 198.1 247.6 197.1C246.9 196 245.8 195.5 244.2 195.5C242.6 195.5 241.5 196 240.8 197.1C240.1 198.2 239.7 199.4 239.6 200.7C239.5 202.1 239.4 203.3 239.4 204.4V238.8C239.4 239.8 239.5 240.9 239.7 242.2C239.9 243.5 240.3 244.7 241 245.7C241.7 246.7 242.8 247.2 244.3 247.2Z" fill="black"/>
<path d="M271.9 186.2C268.6 186.2 266.3 185.3 264.9 183.6C263.5 181.9 262.8 179.3 262.8 175.9V174.2C262.8 170.7 263.5 168.1 264.8 166.5C266.1 164.9 268.5 164.1 271.9 164.1C275.3 164.1 277.6 164.9 279 166.5C280.4 168.1 281 170.6 281 174.1V176C281 179.4 280.3 182 278.9 183.7C277.6 185.4 275.3 186.2 271.9 186.2ZM271.9 181.3C272.7 181.3 273.3 181.1 273.7 180.7C274.1 180.3 274.3 179.6 274.4 178.8C274.5 178 274.5 176.9 274.5 175.8V174.6C274.5 172.8 274.4 171.4 274.2 170.6C274 169.8 273.2 169.3 271.9 169.3C270.6 169.3 269.9 169.7 269.6 170.5C269.4 171.3 269.2 172.7 269.2 174.5V175.8C269.2 177 269.2 178 269.3 178.8C269.4 179.6 269.6 180.3 270 180.7C270.6 181 271.1 181.3 271.9 181.3ZM276.6 203L288.5 164.1H292.8L281 203H276.6ZM297.7 203.1C294.4 203.1 292.1 202.2 290.7 200.5C289.3 198.8 288.7 196.2 288.7 192.8V191C288.7 187.5 289.4 184.9 290.7 183.3C292 181.7 294.4 180.9 297.7 180.9C301 180.9 303.4 181.7 304.8 183.3C306.2 184.9 306.8 187.4 306.8 190.9V192.8C306.8 196.3 306.1 198.8 304.7 200.5C303.3 202.2 301 203.1 297.7 203.1ZM297.7 198.1C298.5 198.1 299.1 197.9 299.5 197.5C299.9 197.1 300.1 196.4 300.2 195.6C300.3 194.8 300.3 193.8 300.3 192.6V191.3C300.3 189.5 300.2 188.1 300 187.3C299.8 186.5 299 186.1 297.7 186.1C296.4 186.1 295.7 186.5 295.4 187.3C295.2 188.1 295 189.5 295 191.3V192.6C295 193.8 295 194.8 295.1 195.6C295.2 196.4 295.4 197.1 295.8 197.5C296.2 197.9 296.9 198.1 297.7 198.1Z" fill="black"/>
<path d="M359.7 192.9L364 201.7L373.7 203.1L366.7 209.9L368.3 219.5L359.7 214.9L351.1 219.5L352.7 209.9L345.7 203.1L355.4 201.7L359.7 192.9Z" fill="black"/>
<path d="M69.2998 192.9L73.5998 201.7L83.1998 203.1L76.2998 209.9L77.8998 219.5L69.2998 214.9L60.5998 219.5L62.2998 209.9L55.2998 203.1L64.9998 201.7L69.2998 192.9Z" fill="black"/>
<path d="M161.6 119C162.6 119.2 165.8 117.7 166.2 121.4C166.6 125.1 168.5 126.3 169.4 126.1C169.4 126.1 165.8 127.5 163.3 124.8C160.7 122.2 161.6 119 161.6 119Z" fill="black"/>
<path d="M161.5 118.8C161.7 119 162.3 119.1 162.9 120.1C163.5 121.1 164 121.6 164.2 121.7C164.2 121.7 163.6 121.5 162.6 120.4C161.7 119.5 161.5 118.8 161.5 118.8Z" fill="black"/>
<path d="M161.6 117.8C162.6 117.6 165.8 119.1 166.2 115.4C166.6 111.7 168.5 110.5 169.4 110.7C169.4 110.7 165.8 109.3 163.3 112C160.7 114.6 161.6 117.8 161.6 117.8Z" fill="black"/>
<path d="M161.5 117.9C161.7 117.7 162.3 117.6 162.9 116.6C163.5 115.6 164 115.1 164.2 115C164.2 115 163.6 115.2 162.6 116.2C161.7 117.3 161.5 117.9 161.5 117.9Z" fill="black"/>
<path d="M147.1 128.5C148.1 128.5 151 126.5 152 130.2C152.9 133.8 155 134.6 155.9 134.3C155.9 134.3 152.6 136.3 149.7 134.1C146.7 131.8 147.1 128.5 147.1 128.5Z" fill="black"/>
<path d="M146.9 128.4C147.2 128.6 147.7 128.6 148.4 129.4C149.1 130.2 149.8 130.7 150 130.8C150 130.8 149.3 130.7 148.3 129.8C147.2 129 146.9 128.4 146.9 128.4Z" fill="black"/>
<path d="M146.9 127.3C147.8 127 151.2 127.9 151 124.1C150.8 120.3 152.5 118.9 153.5 118.9C153.5 118.9 149.7 118.1 147.7 121.2C145.6 124.3 146.9 127.3 146.9 127.3Z" fill="black"/>
<path d="M146.8 127.5C147 127.3 147.5 127 147.9 126C148.3 125 148.8 124.3 149 124.2C149 124.2 148.4 124.5 147.6 125.7C146.9 126.8 146.8 127.5 146.8 127.5Z" fill="black"/>
<path d="M134.3 140.1C135.3 140 137.9 137.5 139.4 140.9C140.9 144.3 143 144.8 143.9 144.4C143.9 144.4 140.9 147 137.7 145.2C134.4 143.5 134.3 140.1 134.3 140.1Z" fill="black"/>
<path d="M134.1 140.1C134.4 140.2 135 140.2 135.8 140.9C136.6 141.6 137.3 142 137.6 142C137.6 142 136.9 142 135.7 141.3C134.5 140.6 134.1 140.1 134.1 140.1Z" fill="black"/>
<path d="M133.9 139C134.8 138.5 138.3 138.9 137.5 135.2C136.7 131.5 138.2 129.8 139.1 129.6C139.1 129.6 135.2 129.4 133.7 132.8C132.2 136.3 133.9 139 133.9 139Z" fill="black"/>
<path d="M133.899 139.2C134.099 138.9 134.599 138.6 134.799 137.5C134.999 136.4 135.399 135.7 135.599 135.5C135.599 135.5 134.999 135.9 134.499 137.2C133.899 138.5 133.899 139.2 133.899 139.2Z" fill="black"/>
<path d="M123.4 153.7C124.3 153.4 126.6 150.5 128.5 153.7C130.5 156.8 132.7 156.9 133.4 156.4C133.4 156.4 130.8 159.4 127.4 158.2C124.1 156.9 123.4 153.7 123.4 153.7Z" fill="black"/>
<path d="M123.3 153.6C123.6 153.7 124.2 153.5 125.1 154.1C126 154.7 126.8 154.9 127 154.9C127 154.9 126.3 155 125.1 154.5C123.8 154.1 123.3 153.6 123.3 153.6Z" fill="black"/>
<path d="M122.9 152.6C123.7 152 127.2 151.7 125.9 148.2C124.6 144.7 125.8 142.8 126.7 142.4C126.7 142.4 122.9 142.8 121.8 146.5C120.8 150.2 122.9 152.6 122.9 152.6Z" fill="black"/>
<path d="M122.9 152.8C123 152.5 123.5 152.1 123.5 151C123.6 149.9 123.8 149.1 124 148.9C124 148.9 123.5 149.4 123.2 150.8C122.8 152.1 122.9 152.8 122.9 152.8Z" fill="black"/>
<path d="M114.8 168.8C115.7 168.3 117.4 165.2 119.9 167.9C122.3 170.7 124.5 170.4 125.2 169.7C125.2 169.7 123.1 173.1 119.6 172.5C115.9 171.9 114.8 168.8 114.8 168.8Z" fill="black"/>
<path d="M114.7 168.7C115 168.7 115.5 168.5 116.5 168.9C117.5 169.3 118.3 169.4 118.5 169.4C118.5 169.4 117.9 169.6 116.5 169.4C115.2 169.1 114.7 168.7 114.7 168.7Z" fill="black"/>
<path d="M114.2 167.8C114.9 167.1 118.3 166.2 116.5 163C114.7 159.8 115.6 157.7 116.4 157.2C116.4 157.2 112.7 158.3 112.2 162C111.7 165.8 114.2 167.8 114.2 167.8Z" fill="black"/>
<path d="M114.1 168C114.2 167.7 114.6 167.2 114.5 166.1C114.4 165 114.6 164.2 114.7 164C114.7 164 114.3 164.6 114.1 166C113.9 167.4 114.1 168 114.1 168Z" fill="black"/>
<path d="M108.6 185.2C109.4 184.6 110.6 181.2 113.5 183.5C116.3 185.8 118.4 185.2 119 184.4C119 184.4 117.5 188.1 113.9 188.1C110.2 188 108.6 185.2 108.6 185.2Z" fill="black"/>
<path d="M108.5 185.2C108.8 185.2 109.3 184.8 110.3 185.1C111.3 185.3 112.1 185.3 112.3 185.2C112.3 185.2 111.7 185.5 110.4 185.5C109.1 185.5 108.5 185.2 108.5 185.2Z" fill="black"/>
<path d="M107.8 184.4C108.4 183.6 111.6 182.2 109.3 179.3C107 176.4 107.6 174.2 108.3 173.6C108.3 173.6 104.8 175.3 104.9 179.1C105.1 182.8 107.8 184.4 107.8 184.4Z" fill="black"/>
<path d="M107.799 184.5C107.799 184.2 108.099 183.7 107.899 182.6C107.599 181.5 107.699 180.7 107.699 180.5C107.699 180.5 107.399 181.1 107.499 182.5C107.599 183.9 107.799 184.5 107.799 184.5Z" fill="black"/>
<path d="M105.1 202.6C105.8 201.9 106.5 198.3 109.6 200.1C112.7 201.9 114.7 200.9 115.2 200.1C115.2 200.1 114.3 204 110.7 204.6C107.1 205.1 105.1 202.6 105.1 202.6Z" fill="black"/>
<path d="M105 202.6C105.3 202.5 105.7 202.1 106.8 202.2C107.9 202.3 108.6 202.1 108.8 202C108.8 202 108.3 202.4 106.9 202.6C105.6 202.8 105 202.6 105 202.6Z" fill="black"/>
<path d="M104.2 201.9C104.6 201 107.6 199 104.9 196.6C102.2 194.1 102.4 191.9 103 191.1C103 191.1 99.7995 193.4 100.5 197.1C101.2 200.8 104.2 201.9 104.2 201.9Z" fill="black"/>
<path d="M104.199 202.1C104.199 201.8 104.399 201.2 103.999 200.2C103.599 199.2 103.499 198.4 103.499 198.1C103.499 198.1 103.299 198.8 103.599 200.2C103.899 201.5 104.199 202.1 104.199 202.1Z" fill="black"/>
<path d="M104.4 220.7C105 219.9 105.1 216.2 108.5 217.4C111.9 218.6 113.7 217.3 114 216.4C114 216.4 113.7 220.4 110.3 221.6C106.8 222.9 104.4 220.7 104.4 220.7Z" fill="black"/>
<path d="M104.3 220.8C104.6 220.7 104.9 220.2 106 220.1C107.1 220 107.8 219.7 108 219.5C108 219.5 107.5 220 106.3 220.4C104.9 220.9 104.3 220.8 104.3 220.8Z" fill="black"/>
<path d="M103.5 220.3C103.8 219.3 106.4 216.9 103.3 214.9C100.2 212.9 100.1 210.7 100.6 209.8C100.6 209.8 97.7997 212.6 99.0997 216.1C100.3 219.7 103.5 220.3 103.5 220.3Z" fill="black"/>
<path d="M103.5 220.4C103.4 220.1 103.6 219.5 103 218.6C102.4 217.7 102.2 216.9 102.2 216.6C102.2 216.6 102.1 217.3 102.6 218.6C103 219.9 103.5 220.4 103.5 220.4Z" fill="black"/>
<path d="M106.8 238.6C107.2 237.7 106.7 234 110.3 234.7C113.8 235.3 115.4 233.7 115.5 232.8C115.5 232.8 115.8 236.8 112.7 238.6C109.5 240.4 106.8 238.6 106.8 238.6Z" fill="black"/>
<path d="M106.6 238.7C106.8 238.5 107.1 238 108.2 237.7C109.2 237.4 109.9 237 110.1 236.8C110.1 236.8 109.7 237.4 108.5 238C107.3 238.7 106.6 238.7 106.6 238.7Z" fill="black"/>
<path d="M105.7 238.3C105.8 237.3 108 234.4 104.7 233C101.4 231.6 100.9 229.4 101.2 228.5C101.2 228.5 98.8999 231.7 100.7 235C102.5 238.3 105.7 238.3 105.7 238.3Z" fill="black"/>
<path d="M105.8 238.5C105.7 238.2 105.7 237.6 105 236.8C104.3 236 103.9 235.2 103.9 235C103.9 235 103.9 235.7 104.6 236.9C105.3 238.1 105.8 238.5 105.8 238.5Z" fill="black"/>
<path d="M111.8 255.4C112.1 254.4 111 250.9 114.6 250.9C118.2 250.9 119.5 249.1 119.5 248.1C119.5 248.1 120.5 252 117.6 254.3C114.8 256.6 111.8 255.4 111.8 255.4Z" fill="black"/>
<path d="M111.7 255.5C111.9 255.3 112.1 254.7 113.1 254.2C114.1 253.7 114.7 253.2 114.8 253C114.8 253 114.5 253.6 113.4 254.5C112.3 255.3 111.7 255.5 111.7 255.5Z" fill="black"/>
<path d="M110.7 255.2C110.6 254.2 112.4 251 108.9 250.2C105.4 249.4 104.5 247.3 104.8 246.3C104.8 246.3 103 249.9 105.3 252.8C107.6 255.8 110.7 255.2 110.7 255.2Z" fill="black"/>
<path d="M110.799 255.4C110.599 255.1 110.599 254.5 109.699 253.8C108.899 253.1 108.399 252.4 108.299 252.2C108.299 252.2 108.399 252.9 109.299 254C110.199 255.1 110.799 255.4 110.799 255.4Z" fill="black"/>
<path d="M119.2 270.9C119.3 269.9 117.8 266.6 121.3 266C124.9 265.4 125.8 263.4 125.7 262.4C125.7 262.4 127.3 266.1 124.8 268.9C122.3 271.6 119.2 270.9 119.2 270.9Z" fill="black"/>
<path d="M119.1 271C119.3 270.7 119.4 270.1 120.3 269.5C121.2 268.9 121.7 268.2 121.8 268C121.8 268 121.6 268.7 120.7 269.7C119.7 270.7 119.1 271 119.1 271Z" fill="black"/>
<path d="M118.1 270.9C117.9 269.9 119.1 266.5 115.5 266.2C111.9 266 110.8 264.1 110.8 263.1C110.8 263.1 109.6 266.9 112.3 269.4C115.1 272 118.1 270.9 118.1 270.9Z" fill="black"/>
<path d="M118.3 271C118.1 270.8 117.9 270.2 117 269.6C116.1 269.1 115.5 268.5 115.4 268.3C115.4 268.3 115.6 269 116.7 269.9C117.6 270.8 118.3 271 118.3 271Z" fill="black"/>
<path d="M129 285.6C129 284.6 126.9 281.6 130.3 280.4C133.7 279.2 134.4 277.1 134.1 276.1C134.1 276.1 136.2 279.5 134.2 282.6C132.2 285.8 129 285.6 129 285.6Z" fill="black"/>
<path d="M129 285.8C129.1 285.5 129.1 284.9 129.9 284.1C130.7 283.3 131.1 282.6 131.1 282.4C131.1 282.4 131 283.1 130.3 284.3C129.6 285.5 129 285.8 129 285.8Z" fill="black"/>
<path d="M128 285.9C127.6 284.9 128.3 281.3 124.8 281.7C121.2 282.1 119.8 280.4 119.7 279.4C119.7 279.4 119.1 283.4 122.2 285.4C125.1 287.4 128 285.9 128 285.9Z" fill="black"/>
<path d="M128.1 286C127.9 285.8 127.6 285.3 126.6 284.9C125.6 284.5 125 284 124.8 283.9C124.8 283.9 125.1 284.5 126.3 285.2C127.5 285.9 128.1 286 128.1 286Z" fill="black"/>
<path d="M140.699 298.4C140.499 297.4 137.999 294.8 141.199 293.1C144.399 291.4 144.699 289.1 144.299 288.3C144.299 288.3 146.899 291.3 145.399 294.7C143.899 298.1 140.699 298.4 140.699 298.4Z" fill="black"/>
<path d="M140.699 298.5C140.799 298.2 140.699 297.6 141.399 296.7C141.999 295.8 142.299 295 142.399 294.8C142.399 294.8 142.399 295.5 141.799 296.8C141.199 298.1 140.699 298.5 140.699 298.5Z" fill="black"/>
<path d="M139.7 298.8C139.2 297.9 139.4 294.2 135.9 295.2C132.4 296.2 130.8 294.7 130.5 293.7C130.5 293.7 130.5 297.7 133.8 299.2C137.1 300.8 139.7 298.8 139.7 298.8Z" fill="black"/>
<path d="M139.799 298.9C139.499 298.7 139.199 298.2 138.199 298C137.099 297.8 136.399 297.4 136.299 297.3C136.299 297.3 136.699 297.9 137.999 298.4C139.199 298.9 139.799 298.9 139.799 298.9Z" fill="black"/>
<path d="M154.1 309C153.8 308 150.9 305.9 153.8 303.6C156.7 301.4 156.7 299.1 156.1 298.3C156.1 298.3 159.1 300.8 158.1 304.5C157.2 308.2 154.1 309 154.1 309Z" fill="black"/>
<path d="M154.1 309.2C154.1 308.9 154 308.3 154.5 307.3C155 306.3 155.2 305.5 155.2 305.3C155.2 305.3 155.3 306 154.9 307.3C154.5 308.7 154.1 309.2 154.1 309.2Z" fill="black"/>
<path d="M153.1 309.6C152.5 308.8 152.1 305.2 148.8 306.7C145.5 308.2 143.6 307.1 143.3 306.2C143.3 306.2 143.9 310.2 147.4 311.1C150.9 312 153.1 309.6 153.1 309.6Z" fill="black"/>
<path d="M153.3 309.6C153 309.5 152.6 309 151.6 309C150.5 309 149.8 308.7 149.6 308.6C149.6 308.6 150.1 309.1 151.4 309.4C152.7 309.8 153.3 309.6 153.3 309.6Z" fill="black"/>
<path d="M168.9 317.3C168.4 316.4 165.3 314.7 167.8 312C170.3 309.3 170 307.1 169.3 306.4C169.3 306.4 172.6 308.4 172.2 312.2C171.8 316 168.9 317.3 168.9 317.3Z" fill="black"/>
<path d="M168.9 317.5C168.9 317.2 168.6 316.6 169 315.6C169.4 314.5 169.4 313.7 169.4 313.5C169.4 313.5 169.7 314.2 169.5 315.6C169.2 316.9 168.9 317.5 168.9 317.5Z" fill="black"/>
<path d="M168 318C167.3 317.3 166.3 313.8 163.3 315.8C160.3 317.9 158.3 317 157.8 316.2C157.8 316.2 159 320 162.6 320.4C166.2 320.7 168 318 168 318Z" fill="black"/>
<path d="M168.2 318C167.9 317.9 167.4 317.6 166.4 317.7C165.3 317.8 164.6 317.7 164.3 317.6C164.3 317.6 164.9 318 166.2 318.1C167.6 318.3 168.2 318 168.2 318Z" fill="black"/>
<path d="M184.8 323C184.2 322.2 180.8 321.1 182.9 318C185 314.9 184.3 312.8 183.5 312.2C183.5 312.2 187.1 313.6 187.3 317.4C187.5 321.2 184.8 323 184.8 323Z" fill="black"/>
<path d="M184.8 323.1C184.7 322.8 184.4 322.3 184.6 321.2C184.8 320.1 184.7 319.3 184.6 319.1C184.6 319.1 184.9 319.7 185 321.1C185.1 322.5 184.8 323.1 184.8 323.1Z" fill="black"/>
<path d="M184.1 323.8C183.3 323.3 181.8 319.9 179.1 322.5C176.4 325 174.3 324.5 173.7 323.8C173.7 323.8 175.5 327.4 179.1 327.1C182.7 326.8 184.1 323.8 184.1 323.8Z" fill="black"/>
<path d="M184.2 323.8C183.9 323.8 183.4 323.5 182.4 323.8C181.4 324.1 180.6 324.1 180.4 324.1C180.4 324.1 181 324.4 182.4 324.3C183.7 324.1 184.2 323.8 184.2 323.8Z" fill="black"/>
<path d="M201.6 325.8C200.9 325.1 197.4 324.6 199 321.2C200.6 317.8 199.5 315.8 198.7 315.4C198.7 315.4 202.5 316.2 203.2 319.9C204 323.5 201.6 325.8 201.6 325.8Z" fill="black"/>
<path d="M201.7 325.9C201.6 325.6 201.2 325.2 201.2 324C201.2 322.9 201 322.1 200.9 321.9C200.9 321.9 201.3 322.4 201.6 323.8C201.8 325.3 201.7 325.9 201.7 325.9Z" fill="black"/>
<path d="M201 326.8C200.1 326.4 198.1 323.4 195.9 326.3C193.7 329.3 191.5 329.1 190.8 328.5C190.8 328.5 193.1 331.7 196.6 330.8C200.1 329.9 201 326.8 201 326.8Z" fill="black"/>
<path d="M201.2 326.7C200.9 326.7 200.4 326.5 199.4 327C198.4 327.5 197.7 327.7 197.4 327.6C197.4 327.6 198.1 327.8 199.4 327.4C200.7 327.2 201.2 326.7 201.2 326.7Z" fill="black"/>
<path d="M268.9 119C267.9 119.2 264.7 117.7 264.3 121.4C263.9 125.1 262 126.3 261.1 126.1C261.1 126.1 264.7 127.5 267.2 124.8C269.7 122.2 268.9 119 268.9 119Z" fill="black"/>
<path d="M269 118.9C268.8 119.1 268.2 119.2 267.6 120.2C267 121.2 266.5 121.7 266.3 121.8C266.3 121.8 266.9 121.6 267.9 120.6C268.8 119.5 269 118.9 269 118.9Z" fill="black"/>
<path d="M268.9 117.8C267.9 117.6 264.7 119.1 264.3 115.4C263.9 111.7 262 110.5 261.1 110.7C261.1 110.7 264.7 109.3 267.2 112C269.7 114.6 268.9 117.8 268.9 117.8Z" fill="black"/>
<path d="M269 117.9C268.8 117.7 268.2 117.6 267.6 116.6C267 115.6 266.5 115.1 266.3 115C266.3 115 266.9 115.2 267.9 116.3C268.8 117.3 269 117.9 269 117.9Z" fill="black"/>
<path d="M283.5 128.5C282.5 128.5 279.6 126.5 278.6 130.1C277.7 133.7 275.6 134.5 274.7 134.2C274.7 134.2 278 136.2 280.9 134C283.9 131.8 283.5 128.5 283.5 128.5Z" fill="black"/>
<path d="M283.6 128.5C283.3 128.7 282.8 128.7 282.1 129.5C281.4 130.3 280.7 130.8 280.5 130.9C280.5 130.9 281.2 130.8 282.2 129.9C283.3 129 283.6 128.5 283.6 128.5Z" fill="black"/>
<path d="M283.7 127.4C282.8 127.1 279.4 128 279.6 124.2C279.8 120.4 278.1 119 277.2 119C277.2 119 281 118.2 283 121.3C285 124.4 283.7 127.4 283.7 127.4Z" fill="black"/>
<path d="M283.8 127.5C283.6 127.3 283.1 127 282.7 126C282.3 125 281.8 124.3 281.6 124.2C281.6 124.2 282.2 124.5 283 125.7C283.7 126.9 283.8 127.5 283.8 127.5Z" fill="black"/>
<path d="M296.399 140.3C295.399 140.1 292.799 137.7 291.299 141.1C289.799 144.5 287.699 145 286.799 144.5C286.799 144.5 289.799 147.1 292.999 145.3C296.199 143.6 296.399 140.3 296.399 140.3Z" fill="black"/>
<path d="M296.5 140.2C296.2 140.3 295.599 140.3 294.799 141C293.999 141.7 293.3 142.1 293 142.1C293 142.1 293.7 142.1 294.9 141.4C296.1 140.8 296.5 140.2 296.5 140.2Z" fill="black"/>
<path d="M296.7 139.2C295.8 138.7 292.3 139.1 293.1 135.4C293.9 131.7 292.4 130 291.5 129.8C291.5 129.8 295.4 129.6 296.9 133C298.5 136.5 296.7 139.2 296.7 139.2Z" fill="black"/>
<path d="M296.8 139.4C296.6 139.1 296.1 138.8 295.9 137.7C295.7 136.6 295.3 135.9 295.1 135.7C295.1 135.7 295.7 136.1 296.2 137.4C296.8 138.7 296.8 139.4 296.8 139.4Z" fill="black"/>
<path d="M307.2 154C306.3 153.7 304.1 150.8 302.1 154C300.1 157.1 297.9 157.2 297.2 156.7C297.2 156.7 299.8 159.7 303.2 158.5C306.6 157.2 307.2 154 307.2 154Z" fill="black"/>
<path d="M307.4 153.9C307.1 154 306.5 153.8 305.6 154.4C304.7 155 303.9 155.2 303.7 155.2C303.7 155.2 304.4 155.3 305.6 154.8C306.9 154.4 307.4 153.9 307.4 153.9Z" fill="black"/>
<path d="M307.7 152.9C306.9 152.3 303.4 152 304.7 148.5C306 145 304.8 143.1 303.9 142.7C303.9 142.7 307.7 143.2 308.8 146.8C309.9 150.5 307.7 152.9 307.7 152.9Z" fill="black"/>
<path d="M307.8 153.1C307.7 152.8 307.2 152.4 307.2 151.3C307.1 150.2 306.9 149.4 306.7 149.2C306.7 149.2 307.2 149.7 307.5 151.1C307.9 152.4 307.8 153.1 307.8 153.1Z" fill="black"/>
<path d="M315.9 169.2C315 168.7 313.299 165.5 310.799 168.3C308.399 171.1 306.2 170.8 305.5 170.1C305.5 170.1 307.6 173.5 311.1 172.9C314.7 172.3 315.9 169.2 315.9 169.2Z" fill="black"/>
<path d="M316 169.2C315.7 169.2 315.2 169 314.2 169.4C313.2 169.8 312.4 169.9 312.2 169.9C312.2 169.9 312.8 170.1 314.2 169.9C315.5 169.6 316 169.2 316 169.2Z" fill="black"/>
<path d="M316.5 168.3C315.8 167.6 312.4 166.7 314.2 163.5C316 160.3 315.1 158.2 314.3 157.7C314.3 157.7 318 158.8 318.5 162.5C319 166.2 316.5 168.3 316.5 168.3Z" fill="black"/>
<path d="M316.5 168.4C316.4 168.1 316.1 167.6 316.1 166.5C316.2 165.4 316.1 164.6 316 164.4C316 164.4 316.4 165 316.5 166.4C316.7 167.8 316.5 168.4 316.5 168.4Z" fill="black"/>
<path d="M322 185.7C321.2 185.1 320 181.6 317.1 184C314.3 186.3 312.2 185.7 311.6 184.9C311.6 184.9 313.1 188.6 316.7 188.6C320.4 188.6 322 185.7 322 185.7Z" fill="black"/>
<path d="M322.199 185.7C321.899 185.6 321.399 185.3 320.399 185.6C319.399 185.8 318.599 185.8 318.399 185.7C318.399 185.7 318.999 186 320.299 186C321.599 186 322.199 185.7 322.199 185.7Z" fill="black"/>
<path d="M322.8 184.9C322.2 184 319 182.7 321.3 179.8C323.6 176.9 323 174.7 322.3 174.1C322.3 174.1 325.8 175.8 325.7 179.6C325.6 183.4 322.8 184.9 322.8 184.9Z" fill="black"/>
<path d="M322.8 185.1C322.8 184.8 322.5 184.3 322.7 183.2C323 182.1 322.9 181.3 322.9 181.1C322.9 181.1 323.2 181.7 323.1 183.1C323.1 184.5 322.8 185.1 322.8 185.1Z" fill="black"/>
<path d="M325.499 203.3C324.799 202.6 324.099 199 320.999 200.7C317.799 202.5 315.899 201.5 315.399 200.6C315.399 200.6 316.299 204.5 319.899 205.2C323.399 205.9 325.499 203.3 325.499 203.3Z" fill="black"/>
<path d="M325.599 203.3C325.299 203.2 324.899 202.8 323.799 202.9C322.699 203 321.999 202.8 321.799 202.7C321.799 202.7 322.299 203.1 323.699 203.3C324.999 203.5 325.599 203.3 325.599 203.3Z" fill="black"/>
<path d="M326.399 202.7C325.999 201.8 322.999 199.8 325.699 197.4C328.399 195 328.199 192.7 327.599 191.9C327.599 191.9 330.799 194.2 330.099 197.9C329.399 201.6 326.399 202.7 326.399 202.7Z" fill="black"/>
<path d="M326.299 202.8C326.299 202.5 326.099 201.9 326.499 200.9C326.899 199.9 326.999 199.1 326.999 198.8C326.999 198.8 327.199 199.5 326.899 200.9C326.699 202.3 326.299 202.8 326.299 202.8Z" fill="black"/>
<path d="M326 221.6C325.4 220.8 325.4 217.1 322 218.3C318.6 219.5 316.8 218.2 316.5 217.2C316.5 217.2 316.8 221.2 320.2 222.5C323.6 223.8 326 221.6 326 221.6Z" fill="black"/>
<path d="M326.099 221.7C325.799 221.5 325.499 221.1 324.399 221C323.299 220.9 322.599 220.6 322.399 220.4C322.399 220.4 322.899 220.9 324.099 221.4C325.499 221.7 326.099 221.7 326.099 221.7Z" fill="black"/>
<path d="M327 221.1C326.7 220.1 324.1 217.7 327.2 215.7C330.3 213.8 330.4 211.5 330 210.6C330 210.6 332.8 213.4 331.5 216.9C330.1 220.6 327 221.1 327 221.1Z" fill="black"/>
<path d="M326.9 221.3C327 221 326.9 220.4 327.4 219.5C328 218.6 328.2 217.8 328.3 217.5C328.3 217.5 328.4 218.2 327.9 219.5C327.4 220.8 326.9 221.3 326.9 221.3Z" fill="black"/>
<path d="M323.5 239.6C323.1 238.7 323.6 235 320 235.6C316.5 236.2 314.9 234.6 314.8 233.6C314.8 233.6 314.4 237.6 317.6 239.4C320.8 241.3 323.5 239.6 323.5 239.6Z" fill="black"/>
<path d="M323.6 239.7C323.4 239.5 323.1 239 322.1 238.7C321.1 238.4 320.4 238 320.2 237.8C320.2 237.8 320.6 238.4 321.8 239.1C323 239.6 323.6 239.7 323.6 239.7Z" fill="black"/>
<path d="M324.6 239.3C324.5 238.3 322.3 235.4 325.6 234C328.9 232.6 329.5 230.4 329.1 229.5C329.1 229.5 331.4 232.8 329.5 236C327.7 239.3 324.6 239.3 324.6 239.3Z" fill="black"/>
<path d="M324.5 239.4C324.6 239.1 324.599 238.5 325.299 237.7C325.999 236.9 326.4 236.2 326.5 235.9C326.5 235.9 326.499 236.6 325.799 237.8C324.999 239 324.5 239.4 324.5 239.4Z" fill="black"/>
<path d="M318.299 256.4C317.999 255.4 319.099 251.9 315.499 251.9C311.899 251.9 310.699 250 310.699 249C310.699 249 309.699 252.9 312.499 255.2C315.299 257.6 318.299 256.4 318.299 256.4Z" fill="black"/>
<path d="M318.399 256.5C318.199 256.3 317.999 255.7 316.999 255.2C315.999 254.7 315.399 254.2 315.299 254C315.299 254 315.599 254.7 316.599 255.5C317.799 256.3 318.399 256.5 318.399 256.5Z" fill="black"/>
<path d="M319.399 256.2C319.499 255.2 317.699 252 321.299 251.2C324.799 250.4 325.699 248.3 325.499 247.4C325.499 247.4 327.199 251 324.899 253.9C322.499 256.8 319.399 256.2 319.399 256.2Z" fill="black"/>
<path d="M319.299 256.4C319.499 256.1 319.499 255.5 320.399 254.9C321.199 254.2 321.699 253.6 321.799 253.3C321.799 253.3 321.699 254 320.799 255.1C319.799 256.1 319.299 256.4 319.299 256.4Z" fill="black"/>
<path d="M310.6 272C310.5 271 312.1 267.7 308.5 267.1C305 266.5 304 264.4 304.2 263.4C304.2 263.4 302.6 267.1 305 269.9C307.5 272.7 310.6 272 310.6 272Z" fill="black"/>
<path d="M310.7 272.2C310.5 271.9 310.4 271.3 309.6 270.7C308.7 270.1 308.2 269.4 308.1 269.2C308.1 269.2 308.3 269.9 309.2 270.9C310.1 271.9 310.7 272.2 310.7 272.2Z" fill="black"/>
<path d="M311.7 272.1C311.9 271.1 310.7 267.6 314.3 267.5C317.9 267.3 319.1 265.4 319 264.4C319 264.4 320.2 268.3 317.4 270.7C314.7 273.2 311.7 272.1 311.7 272.1Z" fill="black"/>
<path d="M311.5 272.2C311.7 272 311.899 271.4 312.799 270.9C313.699 270.4 314.3 269.8 314.4 269.6C314.4 269.6 314.2 270.3 313.1 271.2C312.2 272 311.5 272.2 311.5 272.2Z" fill="black"/>
<path d="M300.6 286.6C300.6 285.6 302.7 282.6 299.3 281.4C295.9 280.2 295.3 278 295.6 277.1C295.6 277.1 293.5 280.5 295.4 283.6C297.5 286.8 300.6 286.6 300.6 286.6Z" fill="black"/>
<path d="M300.7 286.8C300.6 286.5 300.6 285.9 299.8 285.1C299 284.3 298.6 283.6 298.6 283.4C298.6 283.4 298.7 284.1 299.4 285.3C300.2 286.4 300.7 286.8 300.7 286.8Z" fill="black"/>
<path d="M301.7 286.9C302.1 285.9 301.4 282.3 305 282.8C308.6 283.2 310 281.5 310.1 280.5C310.1 280.5 310.7 284.5 307.6 286.5C304.5 288.5 301.7 286.9 301.7 286.9Z" fill="black"/>
<path d="M301.6 287C301.8 286.8 302.1 286.3 303.1 285.9C304.1 285.5 304.8 285.1 304.9 284.9C304.9 284.9 304.6 285.5 303.4 286.2C302.2 286.9 301.6 287 301.6 287Z" fill="black"/>
<path d="M288.699 299.3C288.899 298.3 291.399 295.7 288.199 294C284.999 292.2 284.699 290 285.199 289.1C285.199 289.1 282.599 292.1 284.099 295.5C285.599 299 288.699 299.3 288.699 299.3Z" fill="black"/>
<path d="M288.8 299.5C288.7 299.2 288.8 298.6 288.2 297.7C287.6 296.8 287.3 296 287.2 295.8C287.2 295.8 287.1 296.5 287.7 297.8C288.3 299 288.8 299.5 288.8 299.5Z" fill="black"/>
<path d="M289.8 299.8C290.3 298.9 290.2 295.2 293.7 296.3C297.2 297.3 298.9 295.9 299.1 294.9C299.1 294.9 299.1 298.9 295.7 300.4C292.3 301.8 289.8 299.8 289.8 299.8Z" fill="black"/>
<path d="M289.6 299.8C289.9 299.6 290.2 299.1 291.2 299C292.3 298.8 293 298.5 293.1 298.3C293.1 298.3 292.7 298.9 291.4 299.4C290.3 299.8 289.6 299.8 289.6 299.8Z" fill="black"/>
<path d="M275.2 309.8C275.6 308.8 278.4 306.7 275.5 304.4C272.6 302.1 272.7 299.9 273.3 299.1C273.3 299.1 270.3 301.6 271.2 305.3C272.1 309 275.2 309.8 275.2 309.8Z" fill="black"/>
<path d="M275.2 310C275.2 309.7 275.3 309.1 274.8 308.1C274.3 307.1 274.1 306.3 274.1 306.1C274.1 306.1 273.9 306.8 274.3 308.1C274.8 309.5 275.2 310 275.2 310Z" fill="black"/>
<path d="M276.1 310.4C276.7 309.6 277.2 306 280.4 307.5C283.7 309.1 285.6 307.9 285.9 307C285.9 307 285.2 311 281.7 311.9C278.3 312.8 276.1 310.4 276.1 310.4Z" fill="black"/>
<path d="M276 310.5C276.3 310.4 276.699 310 277.799 309.9C278.899 309.9 279.599 309.7 279.799 309.5C279.799 309.5 279.3 310 278 310.3C276.6 310.6 276 310.5 276 310.5Z" fill="black"/>
<path d="M260.199 317.9C260.699 317 263.799 315.4 261.299 312.7C258.799 310 259.199 307.7 259.899 307.1C259.899 307.1 256.499 309.1 256.899 312.8C257.299 316.6 260.199 317.9 260.199 317.9Z" fill="black"/>
<path d="M260.2 318.1C260.2 317.8 260.5 317.2 260.1 316.2C259.8 315.1 259.7 314.3 259.8 314.1C259.8 314.1 259.5 314.8 259.7 316.2C259.9 317.5 260.2 318.1 260.2 318.1Z" fill="black"/>
<path d="M261 318.7C261.8 318 262.7 314.5 265.7 316.6C268.7 318.7 270.7 317.9 271.2 317.1C271.2 317.1 269.899 320.9 266.299 321.2C262.799 321.4 261 318.7 261 318.7Z" fill="black"/>
<path d="M260.899 318.7C261.199 318.6 261.699 318.3 262.699 318.4C263.799 318.6 264.499 318.5 264.799 318.4C264.799 318.4 264.199 318.8 262.899 318.9C261.499 318.9 260.899 318.7 260.899 318.7Z" fill="black"/>
<path d="M243.999 323.4C244.599 322.6 247.999 321.5 245.899 318.4C243.899 315.3 244.599 313.2 245.399 312.6C245.399 312.6 241.799 314 241.499 317.7C241.399 321.5 243.999 323.4 243.999 323.4Z" fill="black"/>
<path d="M243.999 323.5C244.099 323.2 244.399 322.7 244.199 321.6C243.999 320.5 244.099 319.7 244.199 319.5C244.199 319.5 243.799 320.1 243.799 321.5C243.799 322.9 243.999 323.5 243.999 323.5Z" fill="black"/>
<path d="M244.8 324.3C245.6 323.8 247.2 320.5 249.8 323C252.4 325.6 254.6 325.1 255.2 324.4C255.2 324.4 253.4 328 249.8 327.6C246.1 327.3 244.8 324.3 244.8 324.3Z" fill="black"/>
<path d="M244.6 324.2C244.9 324.2 245.4 323.9 246.4 324.3C247.4 324.6 248.2 324.7 248.4 324.6C248.4 324.6 247.8 324.9 246.4 324.7C245.2 324.6 244.6 324.2 244.6 324.2Z" fill="black"/>
<path d="M227 325.9C227.7 325.2 231.2 324.7 229.7 321.3C228.2 317.9 229.3 315.9 230.1 315.5C230.1 315.5 226.3 316.2 225.5 319.9C224.7 323.6 227 325.9 227 325.9Z" fill="black"/>
<path d="M227 326.1C227.1 325.8 227.5 325.4 227.5 324.3C227.5 323.2 227.7 322.4 227.8 322.2C227.8 322.2 227.4 322.7 227.1 324.1C226.9 325.4 227 326.1 227 326.1Z" fill="black"/>
<path d="M227.6 326.9C228.5 326.5 230.5 323.5 232.7 326.5C234.9 329.5 237.1 329.4 237.8 328.8C237.8 328.8 235.4 332 231.9 331C228.5 330.1 227.6 326.9 227.6 326.9Z" fill="black"/>
<path d="M227.5 326.9C227.8 326.9 228.4 326.8 229.3 327.3C230.2 327.8 231 328 231.3 328C231.3 328 230.6 328.2 229.3 327.8C227.9 327.3 227.5 326.9 227.5 326.9Z" fill="black"/>
</svg>
