<svg width="429" height="429" viewBox="0 0 429 429" fill="none" xmlns="http://www.w3.org/2000/svg">
<path d="M212.2 416.6C322.657 416.6 412.2 327.057 412.2 216.6C412.2 106.143 322.657 16.6001 212.2 16.6001C101.743 16.6001 12.2002 106.143 12.2002 216.6C12.2002 327.057 101.743 416.6 212.2 416.6Z" fill="white"/>
<path d="M212.2 395.9C311.225 395.9 391.5 315.625 391.5 216.6C391.5 117.575 311.225 37.3 212.2 37.3C113.176 37.3 32.9004 117.575 32.9004 216.6C32.9004 315.625 113.176 395.9 212.2 395.9Z" stroke="black" stroke-width="0.8" stroke-miterlimit="10"/>
<path d="M70.9002 302.7C69.4002 300.3 68.7002 297.8 68.7002 295.3C68.7002 292.8 69.4002 290.5 70.9002 288.2C72.4002 286 74.5002 284 77.4002 282.2C80.3002 280.4 83.1002 279.4 85.8002 279.1C88.5002 278.8 91.0002 279.3 93.2002 280.4C95.4002 281.5 97.3002 283.4 98.8002 285.8C99.7002 287.3 100.3 288.9 100.6 290.4C100.9 292 100.9 293.5 100.6 295C100.3 296.5 99.8002 297.8 99.1002 299.1C98.4002 300.4 97.4002 301.3 96.3002 302.1L93.3002 297.2C94.1002 296.5 94.8002 295.6 95.2002 294.6C95.7002 293.6 95.9002 292.5 95.8002 291.4C95.8002 290.3 95.4002 289.2 94.7002 288.1C93.9002 286.7 92.8002 285.7 91.4002 285.1C90.0002 284.5 88.5002 284.3 86.6002 284.5C84.8002 284.8 82.7002 285.7 80.3002 287.1C78.5002 288.2 77.0002 289.4 76.0002 290.5C75.0002 291.7 74.3002 292.8 73.9002 294C73.5002 295.1 73.5002 296.3 73.7002 297.4C73.9002 298.5 74.3002 299.5 74.9002 300.5C75.5002 301.5 76.2002 302.2 76.9002 302.7C77.7002 303.2 78.5002 303.6 79.3002 303.8C80.1002 304 80.9002 304 81.7002 303.9C82.5002 303.8 83.2002 303.6 83.8002 303.3L85.9002 302.3L82.2002 296.2L85.4002 294.2L92.0002 305.1L77.9002 313.7L75.9002 310.5L79.7002 308.2C78.7002 308.2 77.7002 308 76.6002 307.7C75.5002 307.4 74.5002 306.8 73.4002 306.1C72.7002 305.3 71.8002 304.2 70.9002 302.7Z" fill="black"/>
<path d="M111.1 332.5C109.3 334.3 107.5 335.5 105.6 336.1C103.7 336.8 101.8 336.8 99.9003 336.2C97.9003 335.6 95.9003 334.2 93.9003 332.1C91.8003 330 90.5003 327.9 90.0003 326C89.5003 324.1 89.5003 322.1 90.3003 320.2C91.0003 318.3 92.4003 316.5 94.2003 314.7L108.4 300.8L112.3 304.7L97.5003 319C95.7003 320.7 94.9003 322.4 94.9003 324.1C94.9003 325.8 95.6003 327.4 97.1003 328.9C98.1003 329.9 99.1003 330.6 100.2 331C101.3 331.4 102.4 331.4 103.6 331.1C104.8 330.8 105.9 330 107.1 328.9L121.7 314.6L125.5 318.5L111.1 332.5Z" fill="black"/>
<path d="M108 345.3L135.3 325.4L140.1 328.6L131.9 361.4L127.4 358.4L129.5 350.2L119.4 343.4L112.5 348.4L108 345.3ZM123.1 340.1L131.1 345.5L134.9 331.3L123.1 340.1Z" fill="black"/>
<path d="M162.9 374.4L157.7 372.3L157.3 358.3L150.4 355.6L145.6 367.6L140.6 365.6L152.3 336L164.4 340.8C166.7 341.7 168.4 342.8 169.6 344.1C170.8 345.4 171.5 346.8 171.7 348.4C171.9 350 171.7 351.6 171 353.3C170.4 354.9 169.6 356.1 168.6 357C167.7 357.9 166.6 358.5 165.5 358.8C164.4 359.1 163.3 359.3 162.2 359.4L162.9 374.4ZM157.9 354C159.8 354.8 161.4 354.9 162.9 354.5C164.3 354.1 165.3 353 165.9 351.5C166.5 350 166.5 348.6 165.8 347.4C165.1 346.2 164 345.3 162.4 344.6L155.8 342L151.9 351.7L157.9 354Z" fill="black"/>
<path d="M171.1 376.9L187.6 347.4L193.3 348.3L199.5 381.5L194.2 380.6L192.7 372.3L180.6 370.3L176.4 377.7L171.1 376.9ZM182.6 365.9L192.1 367.5L189.6 353.1L182.6 365.9Z" fill="black"/>
<path d="M228.4 348.9L233.8 348.6L235.7 380.3L230.9 380.6L213.4 358.3L214.8 381.6L209.4 381.9L207.5 350.2L212.8 349.9L229.8 371.6L228.4 348.9Z" fill="black"/>
<path d="M237.3 352.8L236 348.2L260.1 341.6L261.4 346.2L252.1 348.7L259.3 374.7L254.1 376.1L246.9 350.1L237.3 352.8Z" fill="black"/>
<path d="M276.4 368.9L262.4 340.4L281.4 331.1L283.4 335.2L269.3 342.1L273.2 350.1L285.7 344L287.7 348.1L275.2 354.2L279.2 362.4L293.7 355.3L295.7 359.5L276.4 368.9Z" fill="black"/>
<path d="M304.6 353.8L285.3 328.5L302.2 315.7L305 319.4L292.5 328.9L297.9 336L309 327.6L311.7 331.2L300.6 339.6L306.1 346.8L318.9 337.1L321.7 340.8L304.6 353.8Z" fill="black"/>
<path d="M305.7 312.5C305.8 312.4 306 312.1 306.5 311.6C306.9 311.1 307.4 310.5 308 309.9C308.6 309.2 309.2 308.5 309.8 307.8C310.4 307.1 310.9 306.5 311.4 306C314 303.1 316.6 301.1 319.1 300.1C321.6 299.1 324.2 298.9 326.7 299.5C329.2 300.1 331.7 301.5 334.1 303.7C336.7 305.9 338.5 308.3 339.5 310.8C340.5 313.3 340.7 315.9 340 318.6C339.3 321.3 337.7 324.1 335.2 327.1L329.8 333.4L305.7 312.5ZM312.6 311.3L329.9 326.3L331.8 324.1C333.2 322.4 334.2 320.7 334.8 319C335.3 317.2 335.3 315.4 334.6 313.6C333.9 311.8 332.5 309.9 330.4 308.1C328.3 306.3 326.4 305.2 324.5 304.8C322.7 304.4 320.9 304.6 319.3 305.3C317.7 306.1 316.1 307.3 314.6 309.1L312.6 311.3Z" fill="black"/>
<path d="M212.2 331.4C275.603 331.4 327 280.002 327 216.6C327 153.198 275.603 101.8 212.2 101.8C148.798 101.8 97.4004 153.198 97.4004 216.6C97.4004 280.002 148.798 331.4 212.2 331.4Z" stroke="black" stroke-width="0.8" stroke-miterlimit="10"/>
<path d="M50.6001 209C50.7001 207.2 51.1001 205.6 51.8001 204.1C52.5001 202.6 53.5001 201.4 54.8001 200.5C56.1001 199.6 57.6001 199.1 59.3001 199L59.1001 203.7C57.7001 204 56.7001 204.7 55.9001 205.6C55.1001 206.5 54.7001 207.7 54.7001 209.1C54.6001 210.7 55.0001 212 55.9001 213.1C56.8001 214.2 58.0001 215 59.7001 215.5C61.4001 216 63.4001 216.3 65.7001 216.2C64.9001 215.7 64.2001 215.1 63.6001 214.4C63.0001 213.6 62.6001 212.8 62.3001 211.8C62.0001 210.8 61.9001 209.8 61.9001 208.8C62.0001 206.8 62.4001 205.1 63.3001 203.6C64.1001 202.1 65.2001 201 66.7001 200.2C68.1001 199.4 69.8001 199.1 71.7001 199.1C73.7001 199.2 75.4001 199.7 76.9001 200.7C78.4001 201.7 79.6001 203 80.4001 204.7C81.2001 206.4 81.6001 208.3 81.5001 210.5C81.4001 212.9 80.7001 215 79.4001 216.8C78.1001 218.5 76.3001 219.8 74.1001 220.7C71.8001 221.6 69.2001 221.9 66.1001 221.8C62.8001 221.7 60.0001 221.1 57.7001 220C55.4001 218.9 53.6001 217.5 52.3001 215.6C51.1001 213.8 50.5001 211.6 50.6001 209ZM65.8001 210.1C65.8001 211.1 65.9001 212 66.3001 212.9C66.7001 213.8 67.2001 214.6 67.9001 215.1C68.6001 215.7 69.3001 216 70.1001 216C71.5001 216.1 72.8001 215.9 73.9001 215.4C75.0001 215 75.8001 214.3 76.5001 213.5C77.1001 212.6 77.5001 211.6 77.5001 210.5C77.5001 209.4 77.3001 208.4 76.9001 207.6C76.5001 206.8 75.7001 206 74.9001 205.5C74.0001 205 73.0001 204.7 71.8001 204.6C70.6001 204.5 69.5001 204.7 68.7001 205.2C67.8001 205.6 67.2001 206.3 66.7001 207.1C66.1001 207.9 65.8001 208.9 65.8001 210.1Z" fill="black"/>
<path d="M54.8001 179.5C55.6001 176.2 57.5001 173.8 60.5001 172.5C63.5001 171.2 67.5001 171.1 72.4001 172.2C77.3001 173.4 80.8001 175.2 82.9001 177.7C85.0001 180.2 85.6001 183.2 84.8001 186.6C84.0001 190 82.1001 192.3 79.1001 193.7C76.1001 195 72.2001 195.1 67.3001 194C64.0001 193.2 61.4001 192.1 59.3001 190.7C57.3001 189.3 55.9001 187.6 55.1001 185.7C54.4001 183.8 54.2001 181.7 54.8001 179.5ZM80.7001 185.6C81.1001 183.7 80.6001 182.1 79.2001 180.8C77.7001 179.5 75.1001 178.4 71.2001 177.4C67.2001 176.5 64.3001 176.3 62.3001 176.8C60.4001 177.3 59.2001 178.5 58.7001 180.4C58.3001 182.3 58.8001 183.9 60.3001 185.3C61.8001 186.7 64.5001 187.8 68.5001 188.7C72.4001 189.6 75.3001 189.8 77.2001 189.2C79.1001 188.7 80.2001 187.5 80.7001 185.6Z" fill="black"/>
<path d="M65.2002 149.3C65.3002 149.2 65.4002 148.9 65.7002 148.3C66.0002 147.8 66.3002 147.1 66.7002 146.4C67.1002 145.7 67.5002 144.9 67.9002 144.2C68.3002 143.4 68.7002 142.8 69.0002 142.2C70.8002 139 72.8002 136.7 74.9002 135.3C77.0002 133.9 79.3002 133.2 81.7002 133.3C84.1002 133.4 86.7002 134.2 89.4002 135.6C92.2002 137.1 94.3002 138.9 95.8002 141C97.2002 143.1 97.9002 145.4 97.9002 148.1C97.8002 150.7 96.9002 153.6 95.2002 156.8L91.5002 163.6L65.2002 149.3ZM71.3002 146.8L90.3002 157.1L91.6002 154.7C92.6002 152.9 93.1002 151.1 93.3002 149.4C93.4002 147.7 93.0002 146 92.0002 144.5C91.0002 143 89.3002 141.5 87.0002 140.3C84.7002 139.1 82.7002 138.4 80.9002 138.4C79.1002 138.4 77.6002 138.9 76.2002 139.9C74.8002 140.9 73.7002 142.4 72.6002 144.3L71.3002 146.8Z" fill="black"/>
<path d="M103.2 142.1L87.3003 114.5L90.8003 110.3L120.7 121.4L117.4 125.3L109.9 122.5L102.5 131.2L106.5 138.1L103.2 142.1ZM99.8003 127.5L105.6 120.6L92.7003 115.6L99.8003 127.5Z" fill="black"/>
<path d="M119.4 84.0002L122.5 103.9L130.6 113.7L126.7 116.9L118.6 107.1L99.6001 100.4L103.8 96.9002L117.7 102.1L115.1 87.5002L119.4 84.0002Z" fill="black"/>
<path d="M147.9 101L136.4 73.3003L143.1 70.5003L159.1 88.7003L157.7 64.5003L164.3 61.8003L175.8 89.5003L171.1 91.5003L162.1 69.8003L163.8 94.5003L159.9 96.1003L143.7 77.5003L152.6 99.1003L147.9 101Z" fill="black"/>
<path d="M193.2 87.0003C190.5 87.4003 188 87.2002 185.8 86.2002C183.6 85.3002 181.8 83.8002 180.4 81.7002C179 79.6002 178 76.9003 177.6 73.8003C177.1 70.6003 177.3 67.8003 178 65.3003C178.8 62.9003 180 60.9003 181.9 59.4003C183.7 57.9003 186 56.9003 188.7 56.5003C191.4 56.1003 193.8 56.4003 196 57.3003C198.2 58.2003 199.9 59.8003 201.4 61.9003C202.8 64.0003 203.8 66.7003 204.2 69.9003C204.7 73.1003 204.5 75.9003 203.8 78.3003C203.1 80.7003 201.8 82.7002 200 84.2002C198.2 85.7002 195.9 86.6003 193.2 87.0003ZM192.6 82.8003C194.2 82.6003 195.5 82.0003 196.6 81.0003C197.7 80.1003 198.4 78.8003 198.8 77.1003C199.2 75.4002 199.2 73.3002 198.8 70.7002C198.4 68.1002 197.8 66.0003 196.9 64.5003C196 62.9003 195 61.9003 193.7 61.3003C192.4 60.7003 191 60.5003 189.4 60.7003C187.8 60.9003 186.5 61.5003 185.4 62.5003C184.3 63.5003 183.6 64.8003 183.2 66.6003C182.8 68.3003 182.8 70.5002 183.2 73.1003C183.6 75.7003 184.2 77.7002 185.1 79.2002C186 80.7002 187.1 81.8003 188.3 82.3003C189.6 82.9003 191 83.1003 192.6 82.8003Z" fill="black"/>
<path d="M232.6 56.3002L237.6 56.7002L235.2 86.6002L230.7 86.2002L217.4 63.1002L215.6 85.0002L210.6 84.6002L213 54.7002L217.9 55.1002L230.8 77.6002L232.6 56.3002Z" fill="black"/>
<path d="M240.8 88.0003L249.4 59.3003L268.4 65.0003L267.1 69.1003L253 64.9003L250.6 72.9003L263.1 76.6003L261.9 80.7003L249.4 77.0003L246.9 85.2003L261.3 89.5003L260 93.7003L240.8 88.0003Z" fill="black"/>
<path d="M299 79.9001L281.8 90.4001L275.9 101.6L271.4 99.2001L277.3 88.0001L276.3 67.9001L281.1 70.5001L281.6 85.4001L294.1 77.4001L299 79.9001Z" fill="black"/>
<path d="M294.1 113.3L314.5 91.3003L322.1 98.3003C324.9 100.9 326.5 103.3 327 105.6C327.5 107.9 326.8 109.9 325.1 111.8C324.1 112.9 322.9 113.6 321.5 113.9C320.2 114.2 318.5 113.9 316.5 113.1C317.2 114.1 317.7 115.1 317.9 116C318.1 116.9 318.2 117.8 318.1 118.5C318 119.3 317.7 120 317.4 120.6C317 121.3 316.6 121.9 316.1 122.4C314.2 124.4 312.2 125.2 309.9 124.9C307.6 124.6 305 123.1 302.1 120.4L294.1 113.3ZM300.5 113.8L304.7 117.7C306.3 119.1 307.7 120 309 120.2C310.3 120.4 311.5 119.9 312.5 118.9C313.2 118.1 313.6 117.3 313.7 116.4C313.8 115.5 313.6 114.7 313.1 113.8C312.6 112.9 312 112.1 311.2 111.3L306.7 107.1L300.5 113.8ZM309.5 104.1L314 108.3C314.5 108.8 315.1 109.2 315.7 109.5C316.3 109.8 316.9 110.1 317.5 110.2C318.1 110.3 318.7 110.3 319.4 110.1C320 109.9 320.6 109.5 321.1 109C322.1 107.9 322.5 106.7 322.2 105.4C321.9 104.1 321 102.8 319.7 101.6L315.6 97.7003L309.5 104.1Z" fill="black"/>
<path d="M311.7 129.8L342.4 121.3L345.5 125.8L327.2 151.9L324.3 147.8L328.9 141.3L322.3 132L314.6 134.1L311.7 129.8ZM326.7 130.2L331.9 137.6L340 126.4L326.7 130.2Z" fill="black"/>
<path d="M360.7 152.4C361.6 154.4 361.9 156.4 361.8 158.3C361.7 160.2 361.1 162 360.1 163.5C359.1 165 357.8 166.3 356.2 167.2L354.1 162.3C355 161.7 355.8 160.9 356.4 160.1C357 159.3 357.3 158.3 357.4 157.2C357.5 156.2 357.3 155.1 356.8 153.9C356.2 152.4 355.3 151.4 354.1 150.6C353 149.9 351.5 149.6 349.8 149.7C348.1 149.8 346 150.4 343.6 151.4C340 153 337.6 154.7 336.5 156.6C335.4 158.5 335.3 160.6 336.2 162.8C336.7 164 337.4 164.9 338.3 165.5C339.2 166.1 340.2 166.5 341.2 166.6C342.3 166.7 343.4 166.7 344.5 166.4L346.6 171.3C345.3 171.7 344 171.9 342.6 171.9C341.3 171.9 339.9 171.7 338.7 171.2C337.4 170.7 336.3 170 335.2 168.9C334.1 167.8 333.2 166.4 332.4 164.6C331.3 162.1 330.9 159.7 331.3 157.4C331.7 155.1 332.7 153 334.4 151.1C336.1 149.2 338.4 147.6 341.4 146.3C344.3 145 347 144.4 349.5 144.5C352 144.6 354.2 145.2 356.1 146.6C358.1 148 359.6 149.9 360.7 152.4Z" fill="black"/>
<path d="M343.6 203.2L342.5 197.7L355.1 186.4L348.6 182.8L339.8 184.6L338.7 179.5L368.1 173.5L369.1 178.6L354.9 181.5L371.6 190.4L372.8 196.2L359.4 189.2L343.6 203.2Z" fill="black"/>
<path d="M141.2 260.6V198.7C140.5 199.1 139.7 199.5 138.8 199.9C137.9 200.3 137 200.7 136 201.1C135 201.5 134 201.9 133.1 202.3C132.2 202.7 131.3 203.1 130.6 203.5V191.6C131.3 191.2 132.3 190.7 133.6 190C134.9 189.3 136.3 188.6 137.7 187.7C139.2 186.9 140.5 186 141.8 185.2C143.1 184.3 144 183.6 144.7 182.9H157.3V260.6H141.2Z" fill="black"/>
<path d="M190.2 262C185.5 262 181.6 261.1 178.5 259.2C175.4 257.3 173 254.7 171.4 251.4C169.8 248.1 169 244.2 169 239.8V204.6C169 200.1 169.8 196.1 171.3 192.7C172.8 189.3 175.1 186.6 178.3 184.7C181.4 182.8 185.4 181.8 190.3 181.8C195.2 181.8 199.1 182.8 202.2 184.7C205.3 186.6 207.6 189.3 209.1 192.7C210.6 196.1 211.4 200.1 211.4 204.6V239.8C211.4 244.2 210.6 248 209 251.4C207.4 254.8 205 257.4 201.9 259.3C198.7 261.1 194.8 262 190.2 262ZM190.2 247.7C191.7 247.7 192.8 247.2 193.5 246.2C194.2 245.2 194.6 244.1 194.7 242.7C194.9 241.4 194.9 240.3 194.9 239.3V204.9C194.9 203.8 194.8 202.6 194.7 201.2C194.6 199.8 194.2 198.6 193.5 197.6C192.8 196.5 191.7 196 190.1 196C188.5 196 187.4 196.5 186.7 197.6C186 198.7 185.6 199.9 185.5 201.2C185.4 202.6 185.3 203.8 185.3 204.9V239.3C185.3 240.3 185.4 241.4 185.6 242.7C185.8 244 186.2 245.2 186.9 246.2C187.7 247.2 188.8 247.7 190.2 247.7Z" fill="black"/>
<path d="M241.1 262C236.4 262 232.5 261.1 229.4 259.2C226.3 257.3 223.9 254.7 222.3 251.4C220.7 248.1 219.9 244.2 219.9 239.8V204.6C219.9 200.1 220.7 196.1 222.2 192.7C223.7 189.3 226 186.6 229.2 184.7C232.3 182.8 236.3 181.8 241.2 181.8C246.1 181.8 250 182.8 253.1 184.7C256.2 186.6 258.5 189.3 260 192.7C261.5 196.1 262.3 200.1 262.3 204.6V239.8C262.3 244.2 261.5 248 259.9 251.4C258.3 254.8 255.9 257.4 252.8 259.3C249.6 261.1 245.7 262 241.1 262ZM241.1 247.7C242.6 247.7 243.7 247.2 244.4 246.2C245.1 245.2 245.5 244.1 245.6 242.7C245.8 241.4 245.8 240.3 245.8 239.3V204.9C245.8 203.8 245.7 202.6 245.6 201.2C245.5 199.8 245.1 198.6 244.4 197.6C243.7 196.5 242.6 196 241 196C239.4 196 238.3 196.5 237.6 197.6C236.9 198.7 236.5 199.9 236.4 201.2C236.3 202.6 236.2 203.8 236.2 204.9V239.3C236.2 240.3 236.3 241.4 236.5 242.7C236.7 244 237.1 245.2 237.8 246.2C238.5 247.2 239.6 247.7 241.1 247.7Z" fill="black"/>
<path d="M277.7 243.8C274.4 243.8 272.1 242.9 270.7 241.2C269.3 239.5 268.6 236.9 268.6 233.5V231.8C268.6 228.3 269.3 225.7 270.6 224.1C271.9 222.5 274.3 221.7 277.7 221.7C281.1 221.7 283.4 222.5 284.8 224.1C286.2 225.7 286.8 228.2 286.8 231.7V233.6C286.8 237 286.1 239.6 284.7 241.3C283.4 242.9 281.1 243.8 277.7 243.8ZM277.7 238.8C278.5 238.8 279.1 238.6 279.5 238.2C279.9 237.8 280.1 237.1 280.2 236.3C280.3 235.5 280.3 234.4 280.3 233.3V232C280.3 230.2 280.2 228.8 280 228C279.8 227.2 279 226.7 277.7 226.7C276.4 226.7 275.7 227.1 275.4 227.9C275.2 228.7 275 230.1 275 231.9V233.2C275 234.4 275 235.4 275.1 236.2C275.2 237 275.4 237.7 275.8 238.1C276.2 238.5 276.9 238.8 277.7 238.8ZM282.4 260.6L294.3 221.7H298.6L286.7 260.6H282.4ZM303.5 260.6C300.2 260.6 297.9 259.7 296.5 258C295.1 256.3 294.5 253.7 294.5 250.3V248.6C294.5 245.1 295.2 242.5 296.5 240.9C297.8 239.3 300.2 238.5 303.5 238.5C306.8 238.5 309.2 239.3 310.6 240.9C312 242.5 312.6 245 312.6 248.5V250.4C312.6 253.9 311.9 256.4 310.5 258.1C309.1 259.8 306.8 260.6 303.5 260.6ZM303.5 255.6C304.3 255.6 304.9 255.4 305.3 255C305.7 254.6 305.9 253.9 306 253.1C306.1 252.3 306.1 251.3 306.1 250.1V248.8C306.1 247 306 245.7 305.8 244.8C305.6 244 304.8 243.6 303.5 243.6C302.2 243.6 301.5 244 301.2 244.8C300.9 245.6 300.8 247 300.8 248.8V250.1C300.8 251.3 300.8 252.3 300.9 253.1C301 253.9 301.2 254.6 301.6 255C302.1 255.4 302.7 255.6 303.5 255.6Z" fill="black"/>
<path d="M354.2 237.7L358.6 246.5L368.2 247.9L361.2 254.7L362.9 264.3L354.2 259.7L345.6 264.3L347.3 254.7L340.3 247.9L349.9 246.5L354.2 237.7Z" fill="black"/>
<path d="M69.8004 238.5L74.1004 247.2L83.8004 248.6L76.8004 255.4L78.4004 265L69.8004 260.5L61.2004 265L62.8004 255.4L55.9004 248.6L65.5004 247.2L69.8004 238.5Z" fill="black"/>
<path d="M213.4 123.8L217.1 132.2L226.2 133.9L219.4 140.1L220.5 149.2L212.6 144.6L204.3 148.5L206.2 139.5L199.8 132.8L209 131.9L213.4 123.8Z" fill="black"/>
<path d="M243.4 134.3L243.3 141.7L249.3 146L242.2 148.1L240 155.2L235.8 149.1L228.4 149.2L232.8 143.3L230.5 136.3L237.5 138.7L243.4 134.3Z" fill="black"/>
<path d="M195.1 135.2L193.7 142.4L198.8 147.7L191.5 148.6L188.1 155.1L185 148.4L177.7 147.2L183.1 142.2L182 134.9L188.5 138.5L195.1 135.2Z" fill="black"/>
<path d="M209.4 286.9L213.3 294.9L222 296.1L215.7 302.3L217.2 311L209.4 306.9L201.6 311L203.1 302.3L196.8 296.1L205.5 294.9L209.4 286.9Z" fill="black"/>
<path d="M232.4 286.4L236.9 291.8L243.9 291.1L240.1 297.1L242.9 303.6L236.1 301.8L230.8 306.5L230.3 299.4L224.3 295.8L230.8 293.2L232.4 286.4Z" fill="black"/>
<path d="M194.2 295.8L188.2 299.5L187.7 306.5L182.4 301.9L175.6 303.7L178.3 297.2L174.5 291.2L181.6 291.8L186 286.4L187.6 293.3L194.2 295.8Z" fill="black"/>
</svg>
