<svg width="30" height="26" viewBox="0 0 30 26" fill="none" xmlns="http://www.w3.org/2000/svg">
<path d="M27.1157 14.4117C26.9928 14.3927 26.8675 14.4233 26.7672 14.4967C26.6669 14.5702 26.5999 14.6805 26.5809 14.8034C26.1501 17.5656 24.7463 20.0828 22.6227 21.901C20.4991 23.7192 17.7956 24.7185 15 24.7186C8.9406 24.7186 3.94062 20.0959 3.3415 14.1918L3.8873 14.7376C3.97521 14.8255 4.09444 14.8749 4.21876 14.8749C4.34309 14.8749 4.46232 14.8255 4.55023 14.7376C4.63814 14.6497 4.68752 14.5305 4.68752 14.4061C4.68752 14.2818 4.63814 14.1626 4.55023 14.0747L3.14398 12.6684C3.10045 12.6249 3.04877 12.5904 2.9919 12.5668C2.93503 12.5433 2.87407 12.5311 2.81251 12.5311C2.75095 12.5311 2.69 12.5433 2.63312 12.5668C2.57625 12.5904 2.52457 12.6249 2.48105 12.6684L1.0748 14.0747C1.03127 14.1182 0.99674 14.1699 0.973182 14.2268C0.949625 14.2836 0.9375 14.3446 0.9375 14.4061C0.9375 14.4677 0.949625 14.5287 0.973182 14.5855C0.99674 14.6424 1.03127 14.6941 1.0748 14.7376C1.11833 14.7811 1.17 14.8157 1.22687 14.8392C1.28375 14.8628 1.3447 14.8749 1.40626 14.8749C1.46782 14.8749 1.52878 14.8628 1.58565 14.8392C1.64252 14.8157 1.6942 14.7811 1.73773 14.7376L2.39029 14.0851C2.65607 17.1675 4.04166 20.0459 6.28524 22.1763C8.52883 24.3068 11.475 25.5417 14.5671 25.6477C17.6592 25.7537 20.6831 24.7236 23.0673 22.7518C25.4516 20.7801 27.0311 18.0034 27.5074 14.9464C27.5264 14.8235 27.4958 14.6982 27.4223 14.5979C27.3488 14.4976 27.2385 14.4306 27.1157 14.4117Z" fill="#2CBFF4"/>
<path d="M28.9249 11.2622C28.8814 11.2187 28.8297 11.1842 28.7729 11.1606C28.716 11.1371 28.655 11.1249 28.5935 11.1249C28.5319 11.1249 28.471 11.1371 28.4141 11.1606C28.3572 11.1842 28.3055 11.2187 28.262 11.2622L27.6095 11.9148C27.3437 8.83232 25.9581 5.95393 23.7145 3.82352C21.4709 1.6931 18.5247 0.458204 15.4326 0.352168C12.3405 0.246133 9.31666 1.2763 6.93241 3.24802C4.54815 5.21974 2.96864 7.99644 2.49231 11.0535C2.47334 11.1763 2.50395 11.3017 2.57741 11.402C2.65087 11.5023 2.76117 11.5693 2.88404 11.5883C3.00691 11.6073 3.13228 11.5767 3.23258 11.5032C3.33287 11.4297 3.39988 11.3194 3.41885 11.1966C3.84964 8.43435 5.25347 5.91706 7.37705 4.09888C9.50064 2.2807 12.2041 1.28138 14.9997 1.28121C21.0592 1.28121 26.0592 5.90426 26.6582 11.8081L26.1124 11.2622C26.0245 11.1743 25.9053 11.125 25.781 11.125C25.6567 11.125 25.5374 11.1743 25.4495 11.2622C25.3616 11.3502 25.3122 11.4694 25.3122 11.5937C25.3122 11.718 25.3616 11.8373 25.4495 11.9252L26.8558 13.3314C26.8993 13.375 26.951 13.4095 27.0078 13.433C27.0647 13.4566 27.1257 13.4687 27.1872 13.4687C27.2488 13.4687 27.3097 13.4566 27.3666 13.433C27.4235 13.4095 27.4752 13.375 27.5187 13.3314L28.9249 11.9252C28.9685 11.8816 29.003 11.83 29.0266 11.7731C29.0501 11.7162 29.0623 11.6553 29.0623 11.5937C29.0623 11.5322 29.0501 11.4712 29.0266 11.4143C29.003 11.3575 28.9685 11.3058 28.9249 11.2622Z" fill="#C4F8FF"/>
<path d="M9.84375 10.1875H17.3438V17.6875H9.84375V10.1875Z" fill="#EA9D2D"/>
<path d="M12.6562 10.1875H14.5312V13.4688H12.6562V10.1875Z" fill="#F23A21"/>
<path d="M17.3438 10.1875L20.1562 8.3125V15.3438L17.3438 17.6875V10.1875Z" fill="#D18D28"/>
<path d="M9.84375 10.1875L12.6562 8.3125H20.1562L17.3438 10.1875H9.84375Z" fill="#F7BA61"/>
<path d="M13.125 16.2812H12.1875C12.0632 16.2812 11.944 16.2319 11.856 16.144C11.7681 16.056 11.7188 15.9368 11.7188 15.8125C11.7188 15.6882 11.7681 15.569 11.856 15.481C11.944 15.3931 12.0632 15.3438 12.1875 15.3438H13.125C13.2493 15.3438 13.3685 15.3931 13.4565 15.481C13.5444 15.569 13.5938 15.6882 13.5938 15.8125C13.5938 15.9368 13.5444 16.056 13.4565 16.144C13.3685 16.2319 13.2493 16.2812 13.125 16.2812Z" fill="#D18D28"/>
<path d="M15.4688 16.2812H15C14.8757 16.2812 14.7565 16.2319 14.6685 16.144C14.5806 16.056 14.5312 15.9368 14.5312 15.8125C14.5312 15.6882 14.5806 15.569 14.6685 15.481C14.7565 15.3931 14.8757 15.3438 15 15.3438H15.4688C15.5931 15.3438 15.7123 15.3931 15.8002 15.481C15.8881 15.569 15.9375 15.6882 15.9375 15.8125C15.9375 15.9368 15.8881 16.056 15.8002 16.144C15.7123 16.2319 15.5931 16.2812 15.4688 16.2812Z" fill="#D18D28"/>
<path d="M15 20.9688C15.2589 20.9688 15.4688 20.7589 15.4688 20.5C15.4688 20.2411 15.2589 20.0312 15 20.0312C14.7411 20.0312 14.5312 20.2411 14.5312 20.5C14.5312 20.7589 14.7411 20.9688 15 20.9688Z" fill="#EA9D2D"/>
<path d="M13.125 20.9688C13.3839 20.9688 13.5938 20.7589 13.5938 20.5C13.5938 20.2411 13.3839 20.0312 13.125 20.0312C12.8661 20.0312 12.6562 20.2411 12.6562 20.5C12.6562 20.7589 12.8661 20.9688 13.125 20.9688Z" fill="#D18D28"/>
<path d="M16.875 20.9688C17.1339 20.9688 17.3438 20.7589 17.3438 20.5C17.3438 20.2411 17.1339 20.0312 16.875 20.0312C16.6161 20.0312 16.4062 20.2411 16.4062 20.5C16.4062 20.7589 16.6161 20.9688 16.875 20.9688Z" fill="#D18D28"/>
<path d="M1.73773 14.7376L2.39064 14.085C2.65637 17.1675 4.04193 20.0459 6.28551 22.1764C8.52909 24.3069 11.4753 25.5418 14.5674 25.6478C17.6596 25.7539 20.6834 24.7237 23.0677 22.7519C25.452 20.7801 27.0315 18.0034 27.5077 14.9463C27.5267 14.8235 27.4961 14.6981 27.4226 14.5978C27.3492 14.4975 27.2389 14.4305 27.116 14.4115C26.9931 14.3925 26.8678 14.4231 26.7675 14.4966C26.6672 14.5701 26.6002 14.6804 26.5812 14.8032C26.1429 17.6182 24.6943 20.1771 22.5063 22.0015C20.3182 23.826 17.5406 24.7909 14.6927 24.716C11.8448 24.6411 9.12172 23.5315 7.03261 21.5945C4.9435 19.6576 3.63143 17.0261 3.34173 14.192L3.8873 14.7376C3.97521 14.8255 4.09444 14.8749 4.21876 14.8749C4.34309 14.8749 4.46232 14.8255 4.55023 14.7376C4.63814 14.6497 4.68752 14.5305 4.68752 14.4061C4.68752 14.2818 4.63814 14.1626 4.55023 14.0747L3.14398 12.6684C3.10045 12.6249 3.04877 12.5904 2.9919 12.5668C2.93503 12.5433 2.87407 12.5311 2.81251 12.5311C2.75095 12.5311 2.69 12.5433 2.63312 12.5668C2.57625 12.5904 2.52457 12.6249 2.48105 12.6684L1.0748 14.0747C1.03127 14.1182 0.99674 14.1699 0.973182 14.2268C0.949625 14.2836 0.9375 14.3446 0.9375 14.4061C0.9375 14.4677 0.949625 14.5287 0.973182 14.5855C0.99674 14.6424 1.03127 14.6941 1.0748 14.7376C1.11833 14.7811 1.17 14.8157 1.22687 14.8392C1.28375 14.8628 1.3447 14.8749 1.40626 14.8749C1.46782 14.8749 1.52878 14.8628 1.58565 14.8392C1.64252 14.8157 1.6942 14.7811 1.73773 14.7376Z" fill="#BCC3CA"/>
<path d="M28.262 11.2622L27.6093 11.9149C27.3436 8.83243 25.958 5.95401 23.7144 3.82356C21.4709 1.69312 18.5247 0.458205 15.4325 0.352168C12.3404 0.246132 9.31656 1.27632 6.93231 3.24806C4.54807 5.21981 2.96858 7.99655 2.49231 11.0536C2.47334 11.1765 2.50395 11.3018 2.57741 11.4021C2.65087 11.5024 2.76117 11.5694 2.88404 11.5884C3.00691 11.6074 3.13228 11.5768 3.23258 11.5033C3.33287 11.4298 3.39988 11.3196 3.41885 11.1967C3.85748 8.38196 5.30626 5.82335 7.49431 3.99921C9.68237 2.17507 12.4599 1.2103 15.3076 1.28526C18.1553 1.36023 20.8782 2.4698 22.9673 4.40653C25.0563 6.34327 26.3685 8.97456 26.6584 11.8085L26.1124 11.2624C26.0689 11.2189 26.0172 11.1844 25.9604 11.1608C25.9035 11.1373 25.8425 11.1251 25.781 11.1251C25.7194 11.1251 25.6585 11.1373 25.6016 11.1608C25.5447 11.1844 25.493 11.2189 25.4495 11.2624C25.406 11.306 25.3715 11.3576 25.3479 11.4145C25.3243 11.4714 25.3122 11.5323 25.3122 11.5939C25.3122 11.6554 25.3243 11.7164 25.3479 11.7733C25.3715 11.8302 25.406 11.8818 25.4495 11.9254L26.8558 13.3316C26.8993 13.3751 26.951 13.4097 27.0078 13.4332C27.0647 13.4568 27.1257 13.4689 27.1872 13.4689C27.2488 13.4689 27.3097 13.4568 27.3666 13.4332C27.4235 13.4097 27.4752 13.3751 27.5187 13.3316L28.9249 11.9254C29.0129 11.8374 29.0622 11.7182 29.0622 11.5939C29.0622 11.4696 29.0129 11.3503 28.9249 11.2624C28.837 11.1745 28.7178 11.1251 28.5935 11.1251C28.4692 11.1251 28.3499 11.1745 28.262 11.2624V11.2622Z" fill="white"/>
<path d="M17.6432 18.0481L17.6439 18.0476C17.6439 18.0476 20.4711 15.6909 20.4772 15.6848C20.5239 15.6411 20.5611 15.5882 20.5865 15.5296C20.6119 15.4709 20.625 15.4077 20.625 15.3438C20.625 15.3438 20.6139 8.20633 20.6049 8.17668C20.5758 8.08039 20.5164 7.99603 20.4356 7.93607C20.3548 7.87612 20.2569 7.84375 20.1562 7.84375H12.6562C12.5637 7.84373 12.4732 7.87113 12.3962 7.9225L9.58371 9.7975C9.52683 9.83565 9.47902 9.88583 9.44367 9.94449C9.40833 10.0032 9.3863 10.0689 9.37916 10.137C9.37787 10.1445 9.37705 10.1532 9.37641 10.1622C9.37641 10.168 9.37553 10.1739 9.37547 10.1798C9.37547 10.1826 9.375 10.1847 9.375 10.1877V17.6875C9.375 17.8118 9.42439 17.931 9.51229 18.019C9.6002 18.1069 9.71943 18.1562 9.84375 18.1562H17.3438C17.4531 18.1564 17.5591 18.1181 17.6432 18.0481ZM19.6875 15.1243L17.8125 16.6867V10.4383L19.6875 9.18836V15.1243ZM16.875 17.2188H10.3125V10.6562H12.1875V13.4688C12.1875 13.5931 12.2369 13.7123 12.3248 13.8002C12.4127 13.8881 12.5319 13.9375 12.6562 13.9375H14.5312C14.6556 13.9375 14.7748 13.8881 14.8627 13.8002C14.9506 13.7123 15 13.5931 15 13.4688V10.6562H16.875V17.2188ZM13.125 13V10.6562H14.0625V13H13.125ZM11.3919 9.71875L12.7982 8.78125H18.6081L17.2018 9.71875H11.3919Z" fill="white"/>
<path d="M13.125 15.3438H12.1875C12.0632 15.3438 11.944 15.3931 11.856 15.481C11.7681 15.569 11.7188 15.6882 11.7188 15.8125C11.7188 15.9368 11.7681 16.056 11.856 16.144C11.944 16.2319 12.0632 16.2812 12.1875 16.2812H13.125C13.2493 16.2812 13.3685 16.2319 13.4565 16.144C13.5444 16.056 13.5938 15.9368 13.5938 15.8125C13.5938 15.6882 13.5444 15.569 13.4565 15.481C13.3685 15.3931 13.2493 15.3438 13.125 15.3438Z" fill="white"/>
<path d="M14.5312 15.8125C14.5312 15.9368 14.5806 16.056 14.6685 16.144C14.7565 16.2319 14.8757 16.2812 15 16.2812H15.4688C15.5931 16.2812 15.7123 16.2319 15.8002 16.144C15.8881 16.056 15.9375 15.9368 15.9375 15.8125C15.9375 15.6882 15.8881 15.569 15.8002 15.481C15.7123 15.3931 15.5931 15.3438 15.4688 15.3438H15C14.8757 15.3438 14.7565 15.3931 14.6685 15.481C14.5806 15.569 14.5312 15.6882 14.5312 15.8125Z" fill="white"/>
<path d="M15 20.9688C15.2589 20.9688 15.4688 20.7589 15.4688 20.5C15.4688 20.2411 15.2589 20.0312 15 20.0312C14.7411 20.0312 14.5312 20.2411 14.5312 20.5C14.5312 20.7589 14.7411 20.9688 15 20.9688Z" fill="white"/>
<path d="M13.125 20.9688C13.3839 20.9688 13.5938 20.7589 13.5938 20.5C13.5938 20.2411 13.3839 20.0312 13.125 20.0312C12.8661 20.0312 12.6562 20.2411 12.6562 20.5C12.6562 20.7589 12.8661 20.9688 13.125 20.9688Z" fill="white"/>
<path d="M16.875 20.9688C17.1339 20.9688 17.3438 20.7589 17.3438 20.5C17.3438 20.2411 17.1339 20.0312 16.875 20.0312C16.6161 20.0312 16.4062 20.2411 16.4062 20.5C16.4062 20.7589 16.6161 20.9688 16.875 20.9688Z" fill="white"/>
</svg>
