<svg width="30" height="30" viewBox="0 0 30 30" fill="none" xmlns="http://www.w3.org/2000/svg">
<g clip-path="url(#clip0)">
<path d="M14.9999 24.8276C20.4276 24.8276 24.8275 20.4277 24.8275 15.0001C24.8275 9.57244 20.4276 5.17249 14.9999 5.17249C9.57232 5.17249 5.17236 9.57244 5.17236 15.0001C5.17236 20.4277 9.57232 24.8276 14.9999 24.8276Z" fill="#D18D28"/>
<path d="M15 23.2758C19.5706 23.2758 23.2758 19.5706 23.2758 15C23.2758 10.4293 19.5706 6.72412 15 6.72412C10.4293 6.72412 6.72412 10.4293 6.72412 15C6.72412 19.5706 10.4293 23.2758 15 23.2758Z" fill="#FFE266"/>
<path d="M15.5327 14.595V11.7312C16.6593 11.8591 17.4503 12.3758 17.4503 12.8449C17.4503 13.1387 17.6888 13.377 17.9829 13.377C18.2771 13.377 18.5156 13.1387 18.5156 12.8449C18.5156 11.7208 17.2417 10.8206 15.5326 10.6634V10.3173C15.5326 10.0234 15.2942 9.78516 15 9.78516C14.7058 9.78516 14.4673 10.0234 14.4673 10.3173V10.6634C12.7583 10.8205 11.4844 11.7208 11.4844 12.8449C11.4844 14.3535 12.8527 14.9475 14.4673 15.4049V18.2688C13.3407 18.1409 12.5497 17.6242 12.5497 17.1551C12.5497 16.8613 12.3112 16.623 12.0171 16.623C11.7229 16.623 11.4844 16.8613 11.4844 17.1551C11.4844 18.2792 12.7583 19.1794 14.4674 19.3366V19.6827C14.4674 19.9766 14.7058 20.2148 15 20.2148C15.2942 20.2148 15.5327 19.9766 15.5327 19.6827V19.3366C17.2417 19.1795 18.5156 18.2792 18.5156 17.1551C18.5157 15.6464 17.1474 15.0525 15.5327 14.595ZM12.5497 12.8448C12.5497 12.3758 13.3407 11.8591 14.4673 11.7311V14.2948C13.049 13.8593 12.5497 13.4649 12.5497 12.8448ZM15.5327 18.2688V15.7051C16.9511 16.1406 17.4503 16.535 17.4503 17.1551C17.4503 17.6241 16.6594 18.1408 15.5327 18.2688Z" fill="#F23A21"/>
<path d="M14.9999 0C10.7208 0 6.72537 1.78828 3.88141 4.93576L4.13278 3.1766C4.17321 2.89371 3.97668 2.63156 3.69385 2.59113C3.41149 2.55123 3.14881 2.74775 3.10838 3.03006L2.59112 6.65074C2.56586 6.82852 2.63406 7.00635 2.77194 7.12096C2.86639 7.19982 2.98405 7.24131 3.10328 7.24131C3.15836 7.24131 3.21338 7.2327 3.26694 7.21453L6.37041 6.18006C6.64117 6.09012 6.78766 5.79715 6.69725 5.52592C6.60731 5.25516 6.31592 5.1082 6.04311 5.19908L4.60135 5.67967C7.25219 2.71775 10.993 1.03447 14.9999 1.03447C22.7005 1.03447 28.9655 7.29943 28.9655 15C28.9655 22.7006 22.7005 28.9655 14.9999 28.9655C14.714 28.9655 14.4827 29.1969 14.4827 29.4828C14.4827 29.7687 14.714 30.0001 14.9999 30.0001C23.2707 30.0001 29.9999 23.2709 29.9999 15.0001C29.9999 6.72926 23.2707 0 14.9999 0Z" fill="white"/>
<path d="M12.9317 29.8536C12.9075 29.8536 12.8822 29.8521 12.8575 29.848C12.6797 29.8227 12.5034 29.7944 12.3281 29.7622C12.0467 29.7111 11.8604 29.4419 11.9119 29.161C11.9629 28.8797 12.2326 28.6918 12.513 28.7448C12.6761 28.7741 12.8403 28.8003 13.0049 28.8246C13.2878 28.865 13.4838 29.1277 13.4429 29.4101C13.4061 29.6682 13.1848 29.8536 12.9317 29.8536Z" fill="#BCC3CA"/>
<path d="M10.4787 29.2802C10.4251 29.2802 10.3711 29.2721 10.3175 29.2545C9.98766 29.1464 9.65988 29.0257 9.34266 28.8964C9.07793 28.7883 8.95119 28.4867 9.0593 28.222C9.1674 27.9573 9.46893 27.8301 9.73365 27.9387C10.0287 28.0588 10.3332 28.171 10.6399 28.2715C10.9116 28.3604 11.0591 28.6529 10.9702 28.9241C10.8985 29.1423 10.6964 29.2802 10.4787 29.2802ZM7.74047 28.0523C7.65258 28.0523 7.56316 28.0301 7.48184 27.9826C7.18535 27.8109 6.88986 27.6255 6.60293 27.431C6.36604 27.2704 6.30439 26.9491 6.46453 26.7128C6.62514 26.4753 6.94693 26.4152 7.18277 26.5744C7.45002 26.7552 7.72477 26.928 8.0001 27.0876C8.2476 27.2311 8.33197 27.5472 8.18848 27.7943C8.0925 27.9599 7.91877 28.0523 7.74047 28.0523ZM5.31586 26.2869C5.19264 26.2869 5.06889 26.2429 4.9698 26.154C4.71422 25.9236 4.46314 25.6817 4.2232 25.4342C4.02469 25.2291 4.02973 24.9018 4.23533 24.7028C4.43936 24.5047 4.76771 24.5088 4.96676 24.7149C5.19053 24.9462 5.42238 25.17 5.6618 25.3851C5.87391 25.576 5.89113 25.9034 5.70018 26.1156C5.59822 26.2294 5.4573 26.2869 5.31586 26.2869ZM3.30551 24.0619C3.1459 24.0619 2.98881 23.9886 2.88779 23.8502C2.68471 23.5729 2.48877 23.2845 2.30443 22.993C2.15191 22.7516 2.22416 22.4318 2.46557 22.2793C2.70803 22.1272 3.02678 22.1995 3.1793 22.4404C3.35104 22.7127 3.53238 22.9793 3.72229 23.239C3.89098 23.4698 3.841 23.7931 3.61061 23.9619C3.51814 24.0295 3.41162 24.0619 3.30551 24.0619ZM1.7942 21.4711C1.59668 21.4711 1.40877 21.358 1.3224 21.167C1.17996 20.8523 1.0476 20.5296 0.928887 20.2073C0.829395 19.9395 0.96627 19.6421 1.23451 19.543C1.50176 19.442 1.80023 19.581 1.89873 19.8487C2.00988 20.1482 2.13258 20.4482 2.26494 20.7407C2.3826 21.0013 2.26693 21.3075 2.00684 21.4251C1.93764 21.4564 1.86545 21.4711 1.7942 21.4711ZM0.850605 18.6238C0.612656 18.6238 0.398555 18.4586 0.345996 18.2167C0.271758 17.8778 0.209121 17.5342 0.160137 17.1963C0.118711 16.9134 0.314707 16.6507 0.59707 16.6099C0.879434 16.5634 1.14264 16.7645 1.18348 17.0468C1.22947 17.361 1.28748 17.6808 1.35621 17.9965C1.41732 18.2753 1.24055 18.5511 0.961231 18.6117C0.924375 18.6202 0.886992 18.6238 0.850605 18.6238ZM0.517734 15.6436C0.234844 15.6436 0.00404297 15.4162 0.00046875 15.1324L0 15C0 14.6955 0.00914062 14.3929 0.0273047 14.0929C0.0445312 13.8075 0.29707 13.5979 0.574863 13.608C0.860273 13.6252 1.07742 13.8706 1.05979 14.1555C1.04256 14.4354 1.03453 14.7167 1.03453 15L1.03506 15.1202C1.03863 15.4056 0.809824 15.64 0.523887 15.6435C0.521777 15.6436 0.519785 15.6436 0.517734 15.6436ZM0.800625 12.6563C0.766816 12.6563 0.732422 12.6532 0.698086 12.6462C0.418242 12.5896 0.236895 12.3169 0.292969 12.037C0.360117 11.7031 0.440449 11.3637 0.531855 11.0288C0.60709 10.7525 0.894492 10.5893 1.16678 10.6656C1.44258 10.7409 1.60518 11.0253 1.52994 11.3005C1.44557 11.6102 1.3708 11.9239 1.30723 12.2411C1.25771 12.4865 1.04203 12.6563 0.800625 12.6563Z" fill="#BCC3CA"/>
<path d="M1.69753 9.7812C1.62933 9.7812 1.5596 9.76755 1.49351 9.73931C1.23083 9.62616 1.1096 9.32206 1.22228 9.05991C1.293 8.89526 1.36724 8.73214 1.44353 8.57101C1.56675 8.31343 1.87437 8.20427 2.133 8.32603C2.3911 8.44872 2.50073 8.75739 2.37798 9.0155C2.30673 9.1645 2.23859 9.31556 2.1729 9.46808C2.08853 9.66401 1.89757 9.7812 1.69753 9.7812Z" fill="#BCC3CA"/>
</g>
<defs>
<clipPath id="clip0">
<rect width="30" height="30" fill="white"/>
</clipPath>
</defs>
</svg>
