<svg width="30" height="30" viewBox="0 0 30 30" fill="none" xmlns="http://www.w3.org/2000/svg">
<g clip-path="url(#clip0)">
<path d="M14.5672 19.1015C14.1787 19.1015 13.8061 18.9435 13.5359 18.6624L10.7671 15.7828C10.2194 15.2132 10.2372 14.3075 10.8067 13.7599C11.3763 13.2122 12.282 13.2299 12.8296 13.7995L14.4968 15.5334L17.5762 11.8764C18.085 11.2719 18.9877 11.1946 19.592 11.7036C20.1964 12.2125 20.2738 13.1151 19.7649 13.7194L15.6616 18.5923C15.4003 18.9026 15.0197 19.0873 14.6143 19.1007C14.5986 19.1013 14.5829 19.1015 14.5672 19.1015Z" fill="#F23A21"/>
<path d="M15.0002 3.40417C8.60619 3.40417 3.4043 8.60607 3.4043 15.0001C3.4043 21.3942 8.60619 26.5961 15.0002 26.5961C21.3943 26.5961 26.5962 21.3942 26.5962 15.0001C26.5962 8.60607 21.3943 3.40417 15.0002 3.40417ZM15.0002 25.4242C9.25236 25.4242 4.57617 20.748 4.57617 15.0002C4.57617 9.25236 9.25236 4.57605 15.0002 4.57605C20.7481 4.57605 25.4243 9.2523 25.4243 15.0001C25.4243 20.7479 20.7481 25.4242 15.0002 25.4242Z" fill="#BCC3CA"/>
<path d="M29.1994 17.0143C29.5747 16.431 30 15.7698 30 15C30 14.2302 29.5747 13.569 29.1994 12.9857C28.9482 12.5952 28.711 12.2263 28.6349 11.8921C28.5537 11.5353 28.608 11.087 28.6655 10.6122C28.7515 9.90215 28.8404 9.16791 28.5171 8.49871C28.1881 7.8178 27.5227 7.40981 26.9356 7.04981C26.5333 6.80313 26.1533 6.57016 25.9323 6.29377C25.709 6.01446 25.5647 5.59082 25.412 5.14229C25.191 4.49313 24.9405 3.75737 24.3528 3.28873C23.7681 2.82256 22.9963 2.74164 22.3153 2.67033C21.8414 2.62065 21.3938 2.57377 21.0679 2.4168C20.7531 2.26516 20.4433 1.94946 20.1153 1.6153C19.631 1.12176 19.0821 0.562424 18.3376 0.39344C17.6206 0.230725 16.9286 0.479163 16.2591 0.719339C15.8038 0.882698 15.3739 1.03703 15.0001 1.03703C14.6262 1.03703 14.1962 0.882698 13.741 0.719339C13.0715 0.479046 12.3793 0.230549 11.6625 0.39344C10.918 0.562483 10.3691 1.12182 9.88477 1.6153C9.55682 1.94946 9.24709 2.26516 8.93232 2.4168C8.60637 2.57377 8.15877 2.62065 7.6848 2.67033C7.00383 2.74164 6.23197 2.8225 5.64732 3.28867C5.05963 3.75725 4.80914 4.49301 4.58818 5.14211C4.43549 5.59071 4.29123 6.0144 4.06781 6.29371C3.8468 6.57016 3.46676 6.80313 3.06451 7.04981C2.4774 7.40981 1.81201 7.81774 1.48307 8.49871C1.15975 9.16785 1.24869 9.90209 1.33465 10.6121C1.39213 11.0869 1.44645 11.5353 1.36518 11.892C1.28906 12.2263 1.05182 12.5952 0.800625 12.9857C0.425332 13.5691 0 14.2302 0 15C0 15.7697 0.425332 16.431 0.800566 17.0143C1.05176 17.4048 1.289 17.7736 1.36512 18.1079C1.44633 18.4646 1.39201 18.913 1.33459 19.3877C1.24857 20.0978 1.15969 20.8321 1.48301 21.5013C1.81195 22.1822 2.4774 22.5902 3.06445 22.9502C3.46676 23.1968 3.84674 23.4298 4.06775 23.7062C4.29111 23.9855 4.43531 24.4091 4.58807 24.8577C4.80908 25.5068 5.05951 26.2426 5.64727 26.7112C6.23197 27.1774 7.00377 27.2583 7.68475 27.3296C8.15865 27.3793 8.60631 27.4262 8.93221 27.5832C9.24697 27.7348 9.55676 28.0505 9.88477 28.3847C10.369 28.8782 10.9179 29.4375 11.6625 29.6065C12.3795 29.7692 13.0716 29.5209 13.7409 29.2806C14.1962 29.1172 14.6261 28.9629 15 28.9629C15.3739 28.9629 15.8038 29.1172 16.2591 29.2806C16.779 29.4672 17.3126 29.6587 17.8609 29.6587C18.0185 29.6587 18.1774 29.6428 18.3376 29.6065C19.0821 29.4374 19.631 28.8781 20.1153 28.3846C20.4432 28.0505 20.753 27.7347 21.0677 27.5831C21.3937 27.4261 21.8413 27.3793 22.3153 27.3296C22.9962 27.2583 23.7681 27.1774 24.3527 26.7112C24.9404 26.2427 25.1909 25.5069 25.4119 24.8578C25.5646 24.4092 25.7088 23.9855 25.9322 23.7062C26.1533 23.4297 26.5333 23.1968 26.9355 22.9501C27.5227 22.5901 28.188 22.1822 28.517 21.5012C28.8403 20.8321 28.7514 20.0978 28.6654 19.3878C28.6079 18.913 28.5536 18.4646 28.6348 18.1079C28.711 17.7736 28.9482 17.4048 29.1994 17.0143ZM28.2139 16.3803C27.919 16.8387 27.6141 17.3128 27.4922 17.8479C27.3659 18.4033 27.4351 18.9754 27.5021 19.5287C27.5708 20.096 27.6356 20.6318 27.4619 20.9915C27.2824 21.3629 26.8164 21.6486 26.3231 21.9511C25.8526 22.2396 25.3661 22.538 25.0171 22.9744C24.6656 23.4138 24.4811 23.956 24.3026 24.4802C24.117 25.0254 23.9418 25.5403 23.6223 25.7951C23.3054 26.0477 22.7652 26.1043 22.1932 26.1642C21.6404 26.2221 21.0688 26.282 20.5592 26.5275C20.06 26.7679 19.6629 27.1726 19.2789 27.5639C18.8716 27.979 18.4869 28.371 18.0782 28.4637C17.6945 28.551 17.1897 28.3696 16.655 28.1776C16.1254 27.9876 15.5778 27.791 15.0001 27.791C14.4223 27.791 13.8747 27.9875 13.3451 28.1776C12.8104 28.3694 12.3056 28.5509 11.922 28.4637C11.5132 28.371 11.1285 27.979 10.7212 27.5639C10.3372 27.1725 9.94014 26.7679 9.44086 26.5275C8.93127 26.2819 8.35969 26.2221 7.80691 26.1642C7.23492 26.1043 6.69475 26.0477 6.37787 25.795C6.0583 25.5402 5.88299 25.0253 5.69742 24.4801C5.51895 23.9559 5.33443 23.4138 4.98305 22.9744C4.634 22.538 4.1475 22.2397 3.67705 21.9511C3.18369 21.6487 2.71764 21.3629 2.53822 20.9915C2.36443 20.6318 2.42936 20.0959 2.49797 19.5286C2.56494 18.9754 2.63426 18.4033 2.50787 17.8479C2.38605 17.3128 2.08113 16.8387 1.78623 16.3803C1.47023 15.8893 1.17188 15.4254 1.17188 15C1.17188 14.5745 1.47023 14.1107 1.78611 13.6196C2.08102 13.1613 2.38594 12.6872 2.50775 12.1521C2.63414 11.5967 2.56494 11.0246 2.49791 10.4713C2.42918 9.90397 2.36438 9.36813 2.53811 9.00848C2.71758 8.63711 3.18357 8.35135 3.67693 8.04883C4.14738 7.76037 4.63395 7.46201 4.98293 7.02561C5.33437 6.58615 5.51889 6.04399 5.69736 5.51975C5.88299 4.97459 6.05824 4.45967 6.3777 4.20496C6.69457 3.95231 7.2348 3.89576 7.8068 3.83582C8.35957 3.77793 8.93115 3.71805 9.4408 3.47254C9.94002 3.23207 10.3371 2.82742 10.7211 2.43614C11.1284 2.02106 11.5131 1.62907 11.9218 1.53631C12.3055 1.4493 12.8104 1.63053 13.345 1.82242C13.8746 2.01244 14.4222 2.20903 14.9999 2.20903C15.5777 2.20903 16.1253 2.0125 16.6549 1.82242C17.1896 1.63059 17.6944 1.44907 18.078 1.53631C18.4868 1.62907 18.8715 2.02106 19.2787 2.43608C19.6628 2.82742 20.0599 3.23207 20.5591 3.47248C21.0687 3.71805 21.6403 3.77787 22.1931 3.83576C22.7651 3.89565 23.3053 3.95225 23.6221 4.20496C23.9417 4.45973 24.117 4.97471 24.3026 5.51987C24.4811 6.04405 24.6656 6.58615 25.017 7.02555C25.366 7.46201 25.8525 7.76031 26.3229 8.04883C26.8163 8.35129 27.2824 8.63705 27.4618 9.00848C27.6356 9.36819 27.5706 9.90403 27.502 10.4713C27.435 11.0246 27.3657 11.5967 27.4921 12.1521C27.6139 12.6872 27.9189 13.1613 28.2138 13.6196C28.5298 14.1108 28.8281 14.5746 28.8281 15C28.8281 15.4254 28.5298 15.8893 28.2139 16.3803Z" fill="white"/>
</g>
<defs>
<clipPath id="clip0">
<rect width="30" height="30" fill="white"/>
</clipPath>
</defs>
</svg>
